<?xml version="1.0" encoding="UTF-8" standalone="no"?>
<svg
   xmlns:dc="http://purl.org/dc/elements/1.1/"
   xmlns:cc="http://creativecommons.org/ns#"
   xmlns:rdf="http://www.w3.org/1999/02/22-rdf-syntax-ns#"
   xmlns:svg="http://www.w3.org/2000/svg"
   xmlns="http://www.w3.org/2000/svg"
   id="svg8"
   version="1.1"
   viewBox="0 0 70.484451 27.919481"
   height="27.919481mm"
   width="70.484451mm">
  <defs
     id="defs2" />
  <metadata
     id="metadata5">
    <rdf:RDF>
      <cc:Work
         rdf:about="">
        <dc:format>image/svg+xml</dc:format>
        <dc:type
           rdf:resource="http://purl.org/dc/dcmitype/StillImage" />
        <dc:title></dc:title>
      </cc:Work>
    </rdf:RDF>
  </metadata>
  <g
     transform="translate(-71.61279,-119.07753)"
     id="layer1">
    <g
       transform="matrix(0.26458333,0,0,0.26458333,66.638588,114.40038)"
       id="g3763">
      <path
         d="m 71.05,22.657495 c -26.06,0 -47.27,21.22 -47.27,47.27 0,26.05 21.22,47.270005 47.27,47.270005 26.05,0 47.27,-21.220005 47.27,-47.270005 0,-26.05 -21.22,-47.27 -47.27,-47.27 z m -0.07,4.2 a 3.1,3.11 0 0 1 3.02,3.11 3.11,3.11 0 0 1 -6.22,0 3.11,3.11 0 0 1 3.2,-3.11 z m 7.12,5.12 a 38.27,38.27 0 0 1 26.2,18.66 l -3.67,8.28 c -0.63,1.43 0.02,3.11 1.44,3.75 l 7.06,3.13 a 38.27,38.27 0 0 1 0.08,6.64 h -3.93 c -0.39,0 -0.55,0.26 -0.55,0.64 v 1.8 c 0,4.24 -2.39,5.17 -4.49,5.4 -2,0.23 -4.21,-0.84 -4.49,-2.06 -1.18,-6.63 -3.14,-8.04 -6.24,-10.49 3.85,-2.44 7.85,-6.05 7.85,-10.87 0,-5.21 -3.57,-8.49 -6,-10.1 -3.42,-2.25 -7.2,-2.7 -8.22,-2.7 h -40.6 a 38.27,38.27 0 0 1 21.41,-12.08 l 4.79,5.02 c 1.08,1.13 2.87,1.18 4,0.09 z m -44.2,23.02 a 3.11,3.11 0 0 1 3.02,3.11 3.11,3.11 0 0 1 -6.22,0 3.11,3.11 0 0 1 3.2,-3.11 z m 74.15,0.14 a 3.11,3.11 0 0 1 3.02,3.11 3.11,3.11 0 0 1 -6.22,0 3.11,3.11 0 0 1 3.2,-3.11 z m -68.29,0.5 h 5.42 v 24.44 H 34.24 a 38.27,38.27 0 0 1 -1.24,-14.61 l 6.7,-2.98 c 1.43,-0.64 2.08,-2.31 1.44,-3.74 z m 22.62,0.26 h 12.91 c 0.67,0 4.71,0.77 4.71,3.8 0,2.51 -3.1,3.41 -5.65,3.41 H 62.37 Z m 0,17.56 h 9.89 c 0.9,0 4.83,0.26 6.08,5.28 0.39,1.54 1.26,6.56 1.85,8.17 0.59,1.8 2.98,5.4 5.53,5.4 h 16.14 a 38.27,38.27 0 0 1 -3.54,4.1 l -6.57,-1.41 c -1.53,-0.33 -3.04,0.65 -3.37,2.18 l -1.56,7.280005 a 38.27,38.27 0 0 1 -31.91,-0.15 l -1.56,-7.280005 c -0.33,-1.53 -1.83,-2.51 -3.36,-2.18 l -6.43,1.38 a 38.27,38.27 0 0 1 -3.32,-3.92 h 31.27 c 0.35,0 0.59,-0.06 0.59,-0.39 v -11.06 c 0,-0.32 -0.24,-0.39 -0.59,-0.39 h -9.15 z m -14.43,25.33 a 3.11,3.11 0 0 1 3.02,3.110005 3.11,3.11 0 0 1 -6.22,0 3.11,3.11 0 0 1 3.2,-3.110005 z m 46.05,0.14 a 3.11,3.11 0 0 1 3.02,3.110005 3.11,3.11 0 0 1 -6.22,0 3.11,3.11 0 0 1 3.2,-3.110005 z"
         id="path3749" />
      <path
         style="fill-rule:evenodd;stroke:#000000;stroke-width:3;stroke-linecap:round;stroke-linejoin:round"
         d="M 115.68,70.95 A 44.63,44.63 0 0 1 71.05,115.58 44.63,44.63 0 0 1 26.42,70.95 44.63,44.63 0 0 1 71.05,26.32 44.63,44.63 0 0 1 115.68,70.95 Z m -0.84,-4.31 6.96,4.31 -6.96,4.31 5.98,5.59 -7.66,2.87 4.78,6.65 -8.09,1.32 3.4,7.46 -8.19,-0.29 1.88,7.98 -7.98,-1.88 0.29,8.19 -7.46,-3.4 -1.32,8.09 -6.65,-4.78 -2.87,7.66 -5.59,-5.98 -4.31,6.96 -4.31,-6.96 -5.59,5.98 -2.87,-7.66 -6.65,4.78 -1.32,-8.09 -7.46,3.4 0.29,-8.19 -7.98,1.88 1.88,-7.98 -8.19,0.29 3.4,-7.46 -8.09,-1.32 4.78,-6.65 -7.66,-2.87 5.98,-5.59 -6.96,-4.31 6.96,-4.31 -5.98,-5.59 7.66,-2.87 -4.78,-6.65 8.09,-1.32 -3.4,-7.46 8.19,0.29 -1.88,-7.98 7.98,1.88 -0.29,-8.19 7.46,3.4 1.32,-8.09 6.65,4.78 2.87,-7.66 5.59,5.98 4.31,-6.96 4.31,6.96 5.59,-5.98 2.87,7.66 6.65,-4.78 1.32,8.09 7.46,-3.4 -0.29,8.19 7.98,-1.88 -1.88,7.98 8.19,-0.29 -3.4,7.46 8.09,1.32 -4.78,6.65 7.66,2.87 z"
         id="path3751" />
    </g>
    <g
       transform="matrix(0.08029354,0,0,0.08029354,117.52742,119.07753)"
       id="g3862">
      <path
         style="fill:#00599c"
         d="M 302.107,258.262 C 304.508,254.103 306,249.417 306,245.209 V 99.14 c 0,-4.208 -1.49,-8.893 -3.892,-13.052 L 153,172.175 Z"
         id="path3828" />
      <path
         style="fill:#004482"
         d="m 166.25,341.193 126.5,-73.034 c 3.644,-2.104 6.956,-5.737 9.357,-9.897 L 153,172.175 3.893,258.263 c 2.401,4.159 5.714,7.793 9.357,9.896 l 126.5,73.034 c 7.287,4.208 19.213,4.208 26.5,0 z"
         id="path3830" />
      <path
         style="fill:#659ad2"
         d="m 302.108,86.087 c -2.402,-4.16 -5.715,-7.793 -9.358,-9.897 L 166.25,3.156 c -7.287,-4.208 -19.213,-4.208 -26.5,0 L 13.25,76.19 C 5.962,80.397 0,90.725 0,99.14 v 146.069 c 0,4.208 1.491,8.894 3.893,13.053 L 153,172.175 Z"
         id="path3832" />
      <g
         id="g3836">
        <path
           style="fill:#ffffff"
           d="m 153,274.175 c -56.243,0 -102,-45.757 -102,-102 0,-56.243 45.757,-102 102,-102 36.292,0 70.139,19.53 88.331,50.968 l -44.143,25.544 C 188.083,130.951 171.15,121.175 153,121.175 c -28.122,0 -51,22.878 -51,51 0,28.121 22.878,51 51,51 18.152,0 35.085,-9.776 44.191,-25.515 l 44.143,25.543 c -18.192,31.441 -52.04,50.972 -88.334,50.972 z"
           id="path3834" />
      </g>
      <g
         id="g3840">
        <polygon
           style="fill:#ffffff"
           points="243.666,177.841 255,177.841 255,166.508 243.666,166.508 243.666,155.175 232.334,155.175 232.334,166.508 221,166.508 221,177.841 232.334,177.841 232.334,189.175 243.666,189.175 "
           id="polygon3838" />
      </g>
      <g
         id="g3844">
        <polygon
           style="fill:#ffffff"
           points="286.166,177.841 297.5,177.841 297.5,166.508 286.166,166.508 286.166,155.175 274.834,155.175 274.834,166.508 263.5,166.508 263.5,177.841 274.834,177.841 274.834,189.175 286.166,189.175 "
           id="polygon3842" />
      </g>
    </g>
  </g>
</svg>
