<?xml version="1.0" encoding="utf-8" standalone="no"?>
<!DOCTYPE svg PUBLIC "-//W3C//DTD SVG 1.1//EN"
  "http://www.w3.org/Graphics/SVG/1.1/DTD/svg11.dtd">
<!-- Created with matplotlib (https://matplotlib.org/) -->
<svg height="248.914051pt" version="1.1" viewBox="0 0 390.6 248.914051" width="390.6pt" xmlns="http://www.w3.org/2000/svg" xmlns:xlink="http://www.w3.org/1999/xlink">
 <metadata>
  <rdf:RDF xmlns:cc="http://creativecommons.org/ns#" xmlns:dc="http://purl.org/dc/elements/1.1/" xmlns:rdf="http://www.w3.org/1999/02/22-rdf-syntax-ns#">
   <cc:Work>
    <dc:type rdf:resource="http://purl.org/dc/dcmitype/StillImage"/>
    <dc:date>2024-10-20T13:31:45.902017</dc:date>
    <dc:format>image/svg+xml</dc:format>
    <dc:creator>
     <cc:Agent>
      <dc:title>Matplotlib v3.3.4, https://matplotlib.org/</dc:title>
     </cc:Agent>
    </dc:creator>
   </cc:Work>
  </rdf:RDF>
 </metadata>
 <defs>
  <style type="text/css">*{stroke-linecap:butt;stroke-linejoin:round;}</style>
 </defs>
 <g id="figure_1">
  <g id="patch_1">
   <path d="M 0 248.914051 
L 390.6 248.914051 
L 390.6 0 
L 0 0 
z
" style="fill:none;opacity:0;"/>
  </g>
  <g id="axes_1">
   <g id="patch_2">
    <path clip-path="url(#pb5798531d0)" d="M 17.754545 237.599776 
L 160.076992 237.599776 
L 17.754545 95.27733 
z
" style="fill:#fedcb4;"/>
   </g>
   <g id="patch_3">
    <path clip-path="url(#pb5798531d0)" d="M 302.399438 152.206309 
L 372.845455 81.760292 
L 302.399438 11.314275 
L 231.953421 81.760292 
z
" style="fill:#baeef8;"/>
   </g>
   <g id="PathCollection_1">
    <defs>
     <path d="M 0 2.236068 
C 0.593012 2.236068 1.161816 2.000462 1.581139 1.581139 
C 2.000462 1.161816 2.236068 0.593012 2.236068 0 
C 2.236068 -0.593012 2.000462 -1.161816 1.581139 -1.581139 
C 1.161816 -2.000462 0.593012 -2.236068 0 -2.236068 
C -0.593012 -2.236068 -1.161816 -2.000462 -1.581139 -1.581139 
C -2.000462 -1.161816 -2.236068 -0.593012 -2.236068 0 
C -2.236068 0.593012 -2.000462 1.161816 -1.581139 1.581139 
C -1.161816 2.000462 -0.593012 2.236068 0 2.236068 
z
" id="m612bef87fd" style="stroke:#fd971f;"/>
    </defs>
    <g clip-path="url(#pb5798531d0)">
     <use style="fill:#fd971f;stroke:#fd971f;" x="88.036122" xlink:href="#m612bef87fd" y="206.809413"/>
    </g>
   </g>
   <g id="PathCollection_2">
    <defs>
     <path d="M 0 2.236068 
C 0.593012 2.236068 1.161816 2.000462 1.581139 1.581139 
C 2.000462 1.161816 2.236068 0.593012 2.236068 0 
C 2.236068 -0.593012 2.000462 -1.161816 1.581139 -1.581139 
C 1.161816 -2.000462 0.593012 -2.236068 0 -2.236068 
C -0.593012 -2.236068 -1.161816 -2.000462 -1.581139 -1.581139 
C -2.000462 -1.161816 -2.236068 -0.593012 -2.236068 0 
C -2.236068 0.593012 -2.000462 1.161816 -1.581139 1.581139 
C -1.161816 2.000462 -0.593012 2.236068 0 2.236068 
z
" id="m5dd7ce8ec6" style="stroke:#66d9ef;"/>
    </defs>
    <g clip-path="url(#pb5798531d0)">
     <use style="fill:#66d9ef;stroke:#66d9ef;" x="317.618019" xlink:href="#m5dd7ce8ec6" y="90.866579"/>
    </g>
   </g>
   <g id="PathCollection_3">
    <g clip-path="url(#pb5798531d0)">
     <use style="fill:#fd971f;stroke:#fd971f;" x="108.354518" xlink:href="#m612bef87fd" y="232.175983"/>
    </g>
   </g>
   <g id="PathCollection_4">
    <g clip-path="url(#pb5798531d0)">
     <use style="fill:#66d9ef;stroke:#66d9ef;" x="320.802258" xlink:href="#m5dd7ce8ec6" y="122.22492"/>
    </g>
   </g>
   <g id="PathCollection_5">
    <g clip-path="url(#pb5798531d0)">
     <use style="fill:#fd971f;stroke:#fd971f;" x="107.613336" xlink:href="#m612bef87fd" y="227.879716"/>
    </g>
   </g>
   <g id="PathCollection_6">
    <g clip-path="url(#pb5798531d0)">
     <use style="fill:#66d9ef;stroke:#66d9ef;" x="325.283487" xlink:href="#m5dd7ce8ec6" y="113.361271"/>
    </g>
   </g>
   <g id="PathCollection_7">
    <g clip-path="url(#pb5798531d0)">
     <use style="fill:#fd971f;stroke:#fd971f;" x="52.212734" xlink:href="#m612bef87fd" y="145.519706"/>
    </g>
   </g>
   <g id="PathCollection_8">
    <g clip-path="url(#pb5798531d0)">
     <use style="fill:#66d9ef;stroke:#66d9ef;" x="305.276157" xlink:href="#m5dd7ce8ec6" y="39.18638"/>
    </g>
   </g>
   <g id="PathCollection_9">
    <g clip-path="url(#pb5798531d0)">
     <use style="fill:#fd971f;stroke:#fd971f;" x="136.872781" xlink:href="#m612bef87fd" y="235.342325"/>
    </g>
   </g>
   <g id="PathCollection_10">
    <g clip-path="url(#pb5798531d0)">
     <use style="fill:#66d9ef;stroke:#66d9ef;" x="329.859996" xlink:href="#m5dd7ce8ec6" y="123.030487"/>
    </g>
   </g>
   <g id="line2d_1">
    <path clip-path="url(#pb5798531d0)" d="M 88.036122 206.809413 
L 91.970473 204.579003 
L 92.586213 204.183781 
L 94.171699 203.499934 
L 96.779447 202.027236 
L 98.732589 200.956843 
L 99.537058 200.423224 
L 99.916503 200.23003 
L 100.537895 199.839342 
L 101.113058 199.549351 
L 103.352679 198.13623 
L 103.793604 197.864603 
L 106.731946 195.896334 
L 107.421184 195.481345 
L 108.68379 194.714931 
L 109.605987 194.267963 
L 110.444993 193.619187 
L 112.700001 192.227125 
L 114.605481 191.174399 
L 114.979026 190.923074 
L 115.425707 190.706731 
L 115.846518 190.46233 
L 116.762855 190.009028 
L 118.253322 188.933554 
L 118.897177 188.641883 
L 119.266188 188.423703 
L 127.989635 183.115029 
L 128.362322 182.883232 
L 129.026133 182.370274 
L 129.650488 182.086827 
L 130.059649 181.822962 
L 130.467187 181.540498 
L 132.183083 180.833535 
L 133.274118 180.118529 
L 133.717036 179.858005 
L 134.631925 179.196382 
L 135.425048 178.69016 
L 136.682612 177.920966 
L 137.035805 177.737227 
L 137.701473 177.365478 
L 138.08793 177.174994 
L 139.246409 176.398248 
L 139.557182 176.142811 
L 139.969643 176.019716 
L 140.638529 175.575514 
L 142.853587 174.371192 
L 144.392601 173.521244 
L 144.615186 173.308297 
L 145.379218 173.015656 
L 146.835475 172.064429 
L 147.046861 172.00532 
L 147.581426 171.570526 
L 153.299992 168.290425 
L 153.871956 167.842046 
L 155.894211 166.559287 
L 156.788156 165.773333 
L 157.995683 165.02506 
L 158.745158 164.681555 
L 159.133365 164.465609 
L 160.080888 163.877462 
L 160.836176 163.267573 
L 161.321382 162.983906 
L 161.675638 162.665995 
L 162.973109 162.030067 
L 166.858347 159.519035 
L 167.357992 159.230704 
L 167.711096 158.947527 
L 168.224608 158.702999 
L 168.946935 158.365659 
L 169.192651 158.32417 
L 169.339765 158.182351 
L 171.370608 157.282114 
L 171.766365 156.993027 
L 172.228223 156.735708 
L 172.612562 156.396103 
L 173.085703 156.17141 
L 173.288471 155.97563 
L 174.070653 155.716867 
L 175.780624 154.962421 
L 176.906386 154.226825 
L 177.115461 154.190724 
L 177.54471 153.950064 
L 178.105518 153.768404 
L 178.920181 153.125394 
L 180.647081 152.248962 
L 182.168096 151.216672 
L 182.93354 150.883026 
L 183.493626 150.447549 
L 186.049122 148.654425 
L 187.756061 147.483702 
L 189.265055 146.911098 
L 190.080199 146.301318 
L 190.602697 145.957481 
L 192.166464 145.359145 
L 192.345006 145.199849 
L 193.456389 144.737358 
L 194.718688 143.753396 
L 195.438685 143.430613 
L 198.462997 141.789439 
L 198.839177 141.44542 
L 202.498519 139.632986 
L 203.05484 139.271625 
L 203.827079 138.947364 
L 204.061868 138.901524 
L 204.237224 138.729594 
L 205.018486 138.375654 
L 206.765419 137.472311 
L 207.228937 137.287014 
L 211.22441 135.248889 
L 212.142212 135.000369 
L 212.607569 134.738173 
L 213.195914 134.299724 
L 213.592981 134.025623 
L 215.274936 133.139573 
L 215.821702 132.921384 
L 215.920648 132.744639 
L 216.350509 132.498423 
L 219.210468 131.467578 
L 219.497258 131.434891 
L 219.935856 131.196225 
L 224.16701 129.424076 
L 224.34579 129.284761 
L 224.619009 129.278873 
L 225.056747 128.988794 
L 225.596739 128.767436 
L 226.071141 128.492679 
L 227.007885 128.228886 
L 227.166731 128.067716 
L 228.049512 127.841901 
L 228.91255 127.325115 
L 232.73261 125.668552 
L 233.469044 125.243781 
L 234.271331 125.01392 
L 235.253193 124.458622 
L 237.282342 123.688901 
L 238.231606 123.42216 
L 238.402063 123.28502 
L 238.983913 123.08363 
L 239.949642 122.710801 
L 240.465413 122.547812 
L 240.889941 122.248625 
L 241.567067 121.868284 
L 242.139075 121.699499 
L 242.450741 121.647203 
L 242.590019 121.488212 
L 243.017014 121.256477 
L 243.724623 120.953151 
L 243.983367 120.898509 
L 244.169961 120.740593 
L 247.016248 119.871337 
L 247.394487 119.600511 
L 248.225987 119.283446 
L 249.075882 118.668182 
L 249.361663 118.616951 
L 249.812625 118.359547 
L 251.668093 117.517801 
L 251.896365 117.383069 
L 252.445503 117.281566 
L 254.148304 116.599997 
L 257.515048 115.16013 
L 258.004194 114.917644 
L 258.319838 114.914273 
L 262.138622 113.239703 
L 263.895222 112.343903 
L 264.852951 111.931855 
L 265.764733 111.788487 
L 266.272496 111.625482 
L 266.430465 111.482909 
L 266.717898 111.457884 
L 270.645581 109.705676 
L 271.509225 109.609241 
L 272.256381 109.194963 
L 273.306959 108.699522 
L 274.08523 108.544095 
L 274.659545 108.375224 
L 275.380061 108.001486 
L 276.428458 107.753188 
L 280.698284 105.736956 
L 281.145262 105.554252 
L 283.815123 104.582997 
L 284.828438 104.177823 
L 285.321458 104.018531 
L 286.116984 103.706828 
L 288.53741 102.682178 
L 289.367856 102.179451 
L 289.830459 101.970487 
L 290.810648 101.563494 
L 290.965311 101.417909 
L 291.270706 101.420354 
L 291.774385 101.216063 
L 292.077605 101.203044 
L 292.813703 100.817194 
L 293.40611 100.645841 
L 294.468324 100.268984 
L 295.159017 99.930298 
L 296.729577 99.319761 
L 297.108288 99.033593 
L 297.410943 99.017867 
L 298.066577 98.654206 
L 302.020132 97.233194 
L 304.526915 96.215975 
L 305.329793 96.003454 
L 305.772487 95.816525 
L 306.872647 95.577202 
L 308.339821 94.888091 
L 308.85691 94.659443 
L 309.572182 94.351846 
L 310.272899 93.997146 
L 314.583169 92.291506 
L 314.868173 92.264764 
L 317.618019 90.866579 
L 317.618019 90.866579 
" style="fill:none;stroke:#ae81ff;stroke-linecap:square;stroke-width:1.5;"/>
   </g>
   <g id="line2d_2">
    <path clip-path="url(#pb5798531d0)" d="M 108.354518 232.175983 
L 109.036682 231.685539 
L 109.786216 231.032285 
L 110.537885 230.562221 
L 112.712911 228.751135 
L 114.107209 227.650614 
L 117.467378 225.131998 
L 118.77263 224.140884 
L 119.869678 223.258212 
L 120.255219 222.933138 
L 120.673932 222.592232 
L 121.727131 221.722682 
L 122.155438 221.352318 
L 122.482448 221.059218 
L 122.846481 220.787673 
L 129.059751 215.840448 
L 129.70967 215.46702 
L 130.084699 215.181157 
L 130.72309 214.713792 
L 132.214784 213.367 
L 132.762086 212.957843 
L 133.196803 212.682061 
L 133.50374 212.363786 
L 136.868748 209.974589 
L 138.217004 209.146783 
L 138.595802 208.876842 
L 139.027428 208.551969 
L 139.639702 207.893418 
L 142.744452 205.571671 
L 143.781227 204.961051 
L 144.382005 204.528673 
L 145.241068 204.034674 
L 145.565866 203.763689 
L 146.637055 203.051892 
L 147.517628 202.554074 
L 148.691711 201.854336 
L 149.488527 201.404685 
L 150.4879 200.610488 
L 150.93951 200.370763 
L 151.506531 199.929456 
L 152.852463 198.956729 
L 155.110102 197.668189 
L 157.078266 196.31759 
L 157.821628 195.757999 
L 158.927693 195.065562 
L 159.271558 194.795443 
L 159.957666 194.367295 
L 160.85562 193.500845 
L 165.065828 190.748077 
L 165.547364 190.320795 
L 166.890819 189.600242 
L 172.375681 186.215526 
L 175.266153 184.111094 
L 178.237348 182.215584 
L 178.85707 181.729199 
L 179.618998 181.335506 
L 180.725147 180.682451 
L 181.116248 180.513562 
L 182.3937 179.679228 
L 183.038773 179.31209 
L 184.399778 178.543195 
L 184.961181 178.172628 
L 185.843244 177.5365 
L 186.394082 177.263918 
L 186.768323 176.989796 
L 188.475784 175.912848 
L 189.155407 175.50473 
L 189.730616 175.251732 
L 190.080407 174.990269 
L 195.073617 172.110856 
L 197.661507 170.862535 
L 197.778514 170.733322 
L 199.268981 169.982019 
L 199.862155 169.633411 
L 201.240368 169.05112 
L 201.744509 168.712786 
L 202.595796 168.267036 
L 207.904443 165.207275 
L 208.483469 164.977299 
L 208.995634 164.701386 
L 209.903484 164.231407 
L 210.517439 163.907784 
L 212.413387 162.940129 
L 212.706663 162.736568 
L 216.14434 160.882552 
L 217.841056 159.9152 
L 221.104245 158.23727 
L 222.277023 157.66639 
L 222.675542 157.408582 
L 223.312103 157.18878 
L 225.618017 156.122898 
L 226.699172 155.693389 
L 228.643777 154.859284 
L 229.30186 154.624296 
L 231.535763 153.609404 
L 231.885777 153.425318 
L 232.284019 153.220973 
L 232.915651 152.949497 
L 233.524231 152.683403 
L 243.710526 148.425571 
L 244.42056 148.15742 
L 247.082084 146.822747 
L 252.799401 144.470224 
L 255.708517 143.213957 
L 256.894939 142.791709 
L 257.833614 142.367461 
L 260.627687 141.318713 
L 261.054742 141.136916 
L 261.809676 140.810073 
L 262.255748 140.690797 
L 262.892228 140.360886 
L 263.382232 140.250274 
L 265.968776 139.178916 
L 268.935274 138.151427 
L 269.614189 137.869333 
L 272.576685 136.899751 
L 274.162361 136.437105 
L 274.332151 136.317704 
L 275.033621 136.120071 
L 275.685473 135.83458 
L 276.625831 135.438963 
L 277.616296 135.133984 
L 278.829258 134.772861 
L 279.466273 134.507054 
L 280.104562 134.205291 
L 280.284049 134.093366 
L 281.039252 133.894554 
L 281.555056 133.71956 
L 283.096369 133.267173 
L 283.80167 133.028133 
L 287.072633 132.110888 
L 287.55868 131.95668 
L 288.456764 131.613707 
L 288.954116 131.446088 
L 290.034024 131.127105 
L 291.598514 130.695878 
L 293.56197 130.017306 
L 295.512673 129.60003 
L 297.324652 128.978433 
L 299.200401 128.566029 
L 301.107295 128.240131 
L 304.83335 126.889924 
L 305.274503 126.710226 
L 306.008708 126.521302 
L 306.487523 126.394774 
L 307.123987 126.078593 
L 307.287707 125.965842 
L 308.351988 125.861394 
L 308.954718 125.578257 
L 309.409502 125.438558 
L 311.369041 124.826076 
L 311.770023 124.632206 
L 314.913986 123.981754 
L 315.096372 123.885641 
L 315.669377 123.768357 
L 318.463181 122.949154 
L 318.982282 122.805029 
L 320.802258 122.22492 
L 320.802258 122.22492 
" style="fill:none;stroke:#ae81ff;stroke-linecap:square;stroke-width:1.5;"/>
   </g>
   <g id="line2d_3">
    <path clip-path="url(#pb5798531d0)" d="M 107.613336 227.879716 
L 110.485235 225.831033 
L 111.056081 225.486539 
L 111.434676 225.19499 
L 112.744149 224.309723 
L 114.54142 222.999595 
L 115.085159 222.645177 
L 116.715805 221.414755 
L 117.510224 220.924564 
L 118.575639 220.175402 
L 118.954603 219.853701 
L 123.317958 216.600012 
L 123.725789 216.254703 
L 124.68651 215.532408 
L 127.891927 213.103768 
L 128.247588 212.837514 
L 129.764246 211.838893 
L 130.419686 211.390627 
L 130.845004 211.124701 
L 135.985628 207.222618 
L 136.325241 206.955133 
L 137.203057 206.167874 
L 137.580759 205.906266 
L 139.96778 204.211825 
L 140.669683 203.782873 
L 144.824536 200.989441 
L 146.184546 200.001283 
L 146.849559 199.47693 
L 147.426762 199.07632 
L 152.209492 195.571993 
L 152.53177 195.341938 
L 153.00838 194.897115 
L 153.373483 194.591237 
L 154.328109 194.078794 
L 155.190642 193.41951 
L 156.06146 192.953006 
L 162.007244 188.288292 
L 162.598778 187.956237 
L 163.794793 186.954924 
L 164.096459 186.705842 
L 164.536384 186.406079 
L 165.922291 185.661364 
L 166.606918 185.281433 
L 166.979353 185.045367 
L 167.841325 184.594156 
L 168.323671 184.157717 
L 169.026492 183.67423 
L 169.360509 183.488654 
L 169.752162 183.251645 
L 170.057217 182.953025 
L 170.871485 182.393596 
L 171.948328 181.660023 
L 172.920724 180.921245 
L 173.739192 180.390273 
L 174.112351 180.168467 
L 174.777724 179.847836 
L 179.836609 176.502774 
L 180.224935 176.191049 
L 181.204982 175.687994 
L 181.480045 175.468756 
L 181.869009 175.282709 
L 182.498157 174.905629 
L 182.999185 174.510144 
L 183.548703 174.132783 
L 185.813634 172.67997 
L 186.549284 172.079144 
L 187.241539 171.737375 
L 187.764784 171.384995 
L 188.673872 170.781494 
L 191.863254 168.915731 
L 192.460033 168.694661 
L 194.369401 167.112882 
L 194.899262 166.760067 
L 196.054097 166.091057 
L 197.017986 165.533572 
L 197.268947 165.240337 
L 198.32103 164.648777 
L 198.781633 164.487107 
L 199.113183 164.217603 
L 199.65504 163.962778 
L 200.02036 163.804209 
L 200.490406 163.534362 
L 200.624449 163.391419 
L 201.398691 163.073307 
L 207.11982 159.892041 
L 208.295977 159.417116 
L 213.697254 156.682592 
L 214.54335 156.214061 
L 215.121073 155.822091 
L 216.242223 155.289823 
L 216.638225 155.038831 
L 217.048216 154.821782 
L 217.820298 154.4081 
L 218.403784 154.010255 
L 219.2319 153.550262 
L 220.457887 152.971358 
L 222.855126 151.657851 
L 223.45568 151.34126 
L 225.049019 150.621469 
L 226.53548 149.849725 
L 228.21161 148.95705 
L 228.646002 148.796572 
L 231.98154 147.089034 
L 232.392721 146.966034 
L 237.036859 144.994198 
L 237.469925 144.821626 
L 238.612418 144.256497 
L 239.751367 143.653449 
L 243.390974 142.096202 
L 245.804895 141.083305 
L 251.505653 138.800557 
L 254.980345 137.250279 
L 255.83216 136.760266 
L 256.927001 136.431432 
L 260.422674 134.809965 
L 261.932701 134.247081 
L 262.35344 134.025891 
L 264.010218 133.574287 
L 265.7799 132.613986 
L 266.408158 132.388662 
L 270.124487 130.925178 
L 271.41225 130.529512 
L 271.869196 130.285747 
L 272.60555 130.112037 
L 273.087515 129.959478 
L 273.773445 129.624664 
L 275.345062 128.928675 
L 276.69871 128.535392 
L 277.960838 128.122107 
L 279.15685 127.792937 
L 280.323277 127.278755 
L 281.004586 127.025812 
L 287.500623 124.810247 
L 288.235583 124.545423 
L 289.313112 124.304221 
L 291.063567 123.506234 
L 291.641432 123.406822 
L 294.096858 122.551528 
L 294.99846 122.172917 
L 295.788965 121.946317 
L 296.984423 121.503819 
L 297.156756 121.375892 
L 297.994201 121.175183 
L 299.01312 120.878301 
L 299.845406 120.679717 
L 300.42285 120.436418 
L 301.025291 120.441811 
L 303.034749 119.797049 
L 303.526552 119.658435 
L 308.373186 118.405134 
L 309.218656 118.120286 
L 314.29708 116.622854 
L 315.35524 116.325018 
L 316.195582 116.148175 
L 316.798784 116.065314 
L 317.499169 115.786755 
L 318.755827 115.314048 
L 324.530424 113.525024 
L 325.100315 113.4686 
L 325.283487 113.361271 
L 325.283487 113.361271 
" style="fill:none;stroke:#ae81ff;stroke-linecap:square;stroke-width:1.5;"/>
   </g>
   <g id="line2d_4">
    <path clip-path="url(#pb5798531d0)" d="M 52.212734 145.519706 
L 52.717232 145.330752 
L 61.030568 143.13679 
L 61.806003 142.96122 
L 62.774496 142.798314 
L 64.71793 142.204948 
L 65.481995 142.001964 
L 69.872057 140.884999 
L 70.332351 140.835725 
L 70.838721 140.67308 
L 71.364778 140.585301 
L 73.988414 139.922062 
L 74.752793 139.687298 
L 75.490112 139.591705 
L 76.039565 139.477487 
L 78.637866 138.869634 
L 79.418571 138.735303 
L 82.511211 137.814832 
L 84.220421 137.467489 
L 85.724391 136.946367 
L 86.510546 136.900015 
L 86.992737 136.677473 
L 89.009459 136.201244 
L 89.496536 136.032262 
L 90.320268 135.9207 
L 91.59098 135.600724 
L 92.114535 135.394662 
L 97.448296 134.074267 
L 98.108381 133.805374 
L 99.321254 133.470824 
L 100.136485 133.398856 
L 101.50759 133.016945 
L 102.839534 132.801255 
L 103.639674 132.601032 
L 104.527839 132.268119 
L 105.620124 132.027361 
L 106.136712 131.909048 
L 106.712616 131.740531 
L 107.847776 131.430396 
L 109.298469 130.997648 
L 110.307892 130.826416 
L 112.288504 130.264338 
L 115.072427 129.7624 
L 117.149007 129.105029 
L 117.381207 128.965577 
L 119.110649 128.591375 
L 119.579181 128.426138 
L 120.670825 128.09818 
L 121.398809 127.891386 
L 122.155069 127.460378 
L 124.533143 126.806038 
L 125.293766 126.51283 
L 126.099285 126.369153 
L 129.307307 125.339357 
L 130.901246 124.873032 
L 131.352498 124.655297 
L 131.865008 124.38901 
L 132.403691 124.251471 
L 133.01235 124.038339 
L 133.45805 123.891934 
L 133.939863 123.749634 
L 135.643544 123.399106 
L 136.74346 123.17973 
L 137.304717 123.033519 
L 137.815344 122.846247 
L 142.308057 121.428515 
L 143.406624 121.226608 
L 147.056423 120.285213 
L 148.347227 119.827257 
L 148.676325 119.792166 
L 149.206361 119.570311 
L 149.787401 119.3917 
L 150.334039 119.188799 
L 152.314807 118.508288 
L 153.341768 118.146816 
L 154.124351 117.931543 
L 155.001902 117.843137 
L 155.554493 117.747309 
L 156.488073 117.542413 
L 157.202279 117.316046 
L 159.793339 116.359782 
L 160.804524 115.988213 
L 161.360594 115.792764 
L 162.342532 115.383973 
L 164.504209 114.529846 
L 164.750805 114.364374 
L 165.342024 114.170185 
L 166.485688 113.8231 
L 167.387846 113.711371 
L 167.638036 113.537729 
L 168.232308 113.389381 
L 168.713957 113.097528 
L 171.397718 112.269762 
L 171.598557 112.126043 
L 171.873681 112.095737 
L 172.086335 111.960151 
L 173.225972 111.666079 
L 173.68485 111.487915 
L 174.14997 111.288947 
L 174.73231 111.024754 
L 175.935785 110.827505 
L 176.440383 110.611182 
L 177.140561 110.367197 
L 177.813559 109.958072 
L 179.536317 109.100893 
L 180.008186 108.935016 
L 181.19718 108.32411 
L 184.581686 106.874904 
L 185.076364 106.624559 
L 186.116183 106.081391 
L 186.894406 105.813347 
L 187.457851 105.574064 
L 188.845564 105.052309 
L 190.835033 104.474516 
L 191.681154 104.226403 
L 192.706721 103.783383 
L 193.212592 103.474748 
L 194.042659 103.273076 
L 195.414461 102.487786 
L 197.976261 101.631036 
L 203.777325 98.968471 
L 205.022057 98.160623 
L 205.549971 98.022154 
L 206.871099 97.473622 
L 207.092825 97.316671 
L 207.39087 97.298304 
L 208.117151 96.820149 
L 208.622597 96.541875 
L 209.675095 96.226084 
L 212.067197 95.013119 
L 212.919282 94.588067 
L 213.44774 94.324687 
L 214.344845 94.091585 
L 214.864837 93.873907 
L 215.159024 93.813125 
L 216.050197 93.113741 
L 216.620172 92.828783 
L 217.101829 92.618876 
L 217.868631 92.120444 
L 219.73478 91.400305 
L 220.24068 91.149769 
L 221.949665 90.119893 
L 222.393526 89.848785 
L 223.508591 89.187118 
L 224.007638 89.009432 
L 225.303068 88.256475 
L 227.246585 86.921253 
L 228.277419 86.429778 
L 228.816248 86.0499 
L 229.116839 85.956488 
L 229.871081 85.3979 
L 230.920445 84.844261 
L 231.347913 84.613768 
L 232.190103 84.087773 
L 232.868928 83.614828 
L 233.102507 83.4222 
L 234.195823 83.077077 
L 235.866998 81.848668 
L 236.604348 81.445485 
L 237.034174 81.129746 
L 237.609174 80.96731 
L 238.045686 80.65072 
L 238.82241 80.339018 
L 240.665307 79.557145 
L 240.877552 79.376744 
L 241.744996 79.088577 
L 242.800476 78.456541 
L 244.701437 77.383183 
L 245.274071 77.174491 
L 247.662949 75.699898 
L 249.022557 74.85027 
L 249.282751 74.775724 
L 249.472665 74.578726 
L 250.034681 74.407378 
L 253.126682 72.86856 
L 253.60637 72.55885 
L 254.017478 72.218361 
L 254.425585 71.825329 
L 254.859873 71.496104 
L 255.77101 70.737629 
L 256.220077 70.46167 
L 256.621603 70.139143 
L 256.920836 70.035858 
L 257.398874 69.697547 
L 258.4903 68.887117 
L 258.896378 68.568673 
L 260.951824 67.628181 
L 261.138809 67.421898 
L 261.684334 67.128939 
L 262.388485 66.710821 
L 262.90177 66.437893 
L 263.180591 66.380072 
L 265.528155 64.805934 
L 265.984538 64.539227 
L 267.249582 63.58405 
L 269.05956 62.600323 
L 270.525558 61.730505 
L 271.210344 61.31663 
L 272.475715 60.219831 
L 275.405026 58.644405 
L 275.572192 58.461797 
L 276.417027 58.198673 
L 280.405885 55.542943 
L 280.88913 55.30959 
L 281.423541 54.779561 
L 284.109129 53.069472 
L 284.551566 52.785464 
L 285.531079 52.127004 
L 285.706397 51.947264 
L 286.504318 51.544305 
L 287.859458 50.499552 
L 288.383303 50.211515 
L 288.790474 49.926702 
L 290.837126 48.532722 
L 291.221281 48.161758 
L 292.013421 47.775014 
L 292.181329 47.599015 
L 292.734502 47.310422 
L 293.179593 46.960645 
L 293.755722 46.673478 
L 296.122567 44.983387 
L 296.923289 44.585057 
L 297.345687 44.3137 
L 299.612648 42.932485 
L 300.815721 42.189091 
L 302.023411 41.452194 
L 304.190266 39.999003 
L 305.276157 39.18638 
L 305.276157 39.18638 
" style="fill:none;stroke:#ae81ff;stroke-linecap:square;stroke-width:1.5;"/>
   </g>
   <g id="line2d_5">
    <path clip-path="url(#pb5798531d0)" d="M 136.872781 235.342325 
L 137.319207 234.864681 
L 138.146443 234.228904 
L 138.669673 233.744681 
L 139.150451 233.187481 
L 139.64012 232.629831 
L 140.887903 231.6959 
L 141.620231 230.997161 
L 142.042248 230.578701 
L 142.340631 230.240011 
L 142.924367 229.842978 
L 143.990659 228.709432 
L 144.305474 228.405144 
L 145.707218 226.988118 
L 148.159689 225.014518 
L 149.74541 223.79521 
L 150.257721 223.309457 
L 152.433636 221.464212 
L 152.93804 220.992575 
L 154.429315 219.856204 
L 154.822608 219.458555 
L 155.385053 218.891496 
L 157.824555 216.782263 
L 163.386207 212.449675 
L 164.03744 211.925104 
L 164.554047 211.499614 
L 165.866209 210.596339 
L 167.721753 209.16268 
L 168.289632 208.819236 
L 169.214912 208.055919 
L 169.950777 207.519755 
L 170.230106 207.271672 
L 171.841803 206.295004 
L 173.298508 205.331198 
L 174.558529 204.413782 
L 177.109828 202.768221 
L 177.631747 202.40531 
L 179.648064 201.065803 
L 185.167683 197.2981 
L 186.687256 196.337848 
L 187.626598 195.735635 
L 198.215658 188.550458 
L 198.528727 188.278926 
L 199.67105 187.597606 
L 200.940608 186.745742 
L 202.23446 185.904548 
L 203.123675 185.311837 
L 204.708227 184.301705 
L 206.200194 183.352212 
L 208.448 182.098316 
L 209.077962 181.6123 
L 209.759516 181.218335 
L 210.616781 180.653229 
L 211.712905 179.969796 
L 213.746896 178.785758 
L 214.230617 178.492091 
L 215.112933 177.991223 
L 216.818334 176.984345 
L 217.319536 176.637183 
L 218.25808 176.075523 
L 219.535378 175.32944 
L 220.058389 174.984157 
L 221.137271 174.272771 
L 235.880257 165.263634 
L 236.82586 164.739618 
L 237.416996 164.382191 
L 238.385179 163.845488 
L 239.779875 163.087917 
L 240.538209 162.675659 
L 242.718598 161.476496 
L 243.0945 161.243937 
L 244.895603 160.263851 
L 245.587673 159.815057 
L 248.989937 158.031932 
L 249.554931 157.711719 
L 252.385093 156.274284 
L 253.607155 155.653548 
L 255.044051 154.915588 
L 256.049431 154.376898 
L 257.388363 153.661869 
L 258.162482 153.245996 
L 259.923764 152.288044 
L 262.210981 151.030044 
L 263.410395 150.379007 
L 269.292842 147.311047 
L 270.051185 146.922976 
L 271.088526 146.452096 
L 272.980822 145.534334 
L 273.940327 145.025018 
L 275.770696 144.147606 
L 279.787407 142.233929 
L 283.206838 140.65729 
L 285.588524 139.670819 
L 288.670699 138.277908 
L 305.856554 130.935276 
L 307.941331 130.045545 
L 310.561287 128.963407 
L 312.647578 128.301986 
L 313.48368 128.066154 
L 316.835365 126.744211 
L 317.734366 126.426424 
L 318.723673 126.084476 
L 319.821085 125.767094 
L 320.878264 125.445136 
L 321.836653 125.078488 
L 324.408856 124.276037 
L 325.558559 124.145734 
L 327.089251 123.688174 
L 329.569364 123.040566 
L 329.859996 123.030487 
L 329.859996 123.030487 
" style="fill:none;stroke:#ae81ff;stroke-linecap:square;stroke-width:1.5;"/>
   </g>
  </g>
 </g>
 <defs>
  <clipPath id="pb5798531d0">
   <rect height="248.914051" width="390.6" x="0" y="0"/>
  </clipPath>
 </defs>
</svg>
