<?xml version="1.0" encoding="UTF-8" standalone="no"?>
<svg
   xmlns:dc="http://purl.org/dc/elements/1.1/"
   xmlns:cc="http://creativecommons.org/ns#"
   xmlns:rdf="http://www.w3.org/1999/02/22-rdf-syntax-ns#"
   xmlns:svg="http://www.w3.org/2000/svg"
   xmlns="http://www.w3.org/2000/svg"
   xmlns:xlink="http://www.w3.org/1999/xlink"
   xmlns:sodipodi="http://sodipodi.sourceforge.net/DTD/sodipodi-0.dtd"
   xmlns:inkscape="http://www.inkscape.org/namespaces/inkscape"
   height="248.91405pt"
   version="1.1"
   viewBox="0 0 781.2 248.91405"
   width="781.20001pt"
   id="svg1059"
   sodipodi:docname="iadb_simple_path_combined.svg"
   inkscape:version="1.0.2 (e86c8708, 2021-01-15)">
  <sodipodi:namedview
     pagecolor="#ffffff"
     bordercolor="#666666"
     borderopacity="1"
     objecttolerance="10"
     gridtolerance="10"
     guidetolerance="10"
     inkscape:pageopacity="0"
     inkscape:pageshadow="2"
     inkscape:window-width="1280"
     inkscape:window-height="747"
     id="namedview1061"
     showgrid="false"
     inkscape:zoom="0.64187059"
     inkscape:cx="459.25269"
     inkscape:cy="194.29838"
     inkscape:window-x="0"
     inkscape:window-y="25"
     inkscape:window-maximized="1"
     inkscape:current-layer="svg1059" />
  <metadata
     id="metadata966">
    <rdf:RDF>
      <cc:Work>
        <dc:type
           rdf:resource="http://purl.org/dc/dcmitype/StillImage" />
        <dc:date>2024-10-20T13:04:15.464058</dc:date>
        <dc:format>image/svg+xml</dc:format>
        <dc:creator>
          <cc:Agent>
            <dc:title>Matplotlib v3.3.4, https://matplotlib.org/</dc:title>
          </cc:Agent>
        </dc:creator>
        <dc:title></dc:title>
      </cc:Work>
    </rdf:RDF>
  </metadata>
  <defs
     id="defs970">
    <style
       type="text/css"
       id="style968">*{stroke-linecap:butt;stroke-linejoin:round;}</style>
    <style
       type="text/css"
       id="style1065">*{stroke-linecap:butt;stroke-linejoin:round;}</style>
    <path
       d="M 0 2.236068  C 0.593012 2.236068 1.161816 2.000462 1.581139 1.581139  C 2.000462 1.161816 2.236068 0.593012 2.236068 0  C 2.236068 -0.593012 2.000462 -1.161816 1.581139 -1.581139  C 1.161816 -2.000462 0.593012 -2.236068 0 -2.236068  C -0.593012 -2.236068 -1.161816 -2.000462 -1.581139 -1.581139  C -2.000462 -1.161816 -2.236068 -0.593012 -2.236068 0  C -2.236068 0.593012 -2.000462 1.161816 -1.581139 1.581139  C -1.161816 2.000462 -0.593012 2.236068 0 2.236068  z "
       id="m612bef87fd"
       style="stroke:#fd971f;" />
    <path
       d="M 0 2.236068  C 0.593012 2.236068 1.161816 2.000462 1.581139 1.581139  C 2.000462 1.161816 2.236068 0.593012 2.236068 0  C 2.236068 -0.593012 2.000462 -1.161816 1.581139 -1.581139  C 1.161816 -2.000462 0.593012 -2.236068 0 -2.236068  C -0.593012 -2.236068 -1.161816 -2.000462 -1.581139 -1.581139  C -2.000462 -1.161816 -2.236068 -0.593012 -2.236068 0  C -2.236068 0.593012 -2.000462 1.161816 -1.581139 1.581139  C -1.161816 2.000462 -0.593012 2.236068 0 2.236068  z "
       id="m5dd7ce8ec6"
       style="stroke:#66d9ef;" />
    <clipPath
       id="pb5798531d0">
      <rect
         height="248.914051"
         width="390.6"
         x="0"
         y="0"
         id="rect1151" />
    </clipPath>
  </defs>
  <g
     id="figure_1">
    <g
       id="patch_1">
      <path
         d="M 0,248.91405 H 390.6 V 0 H 0 Z"
         style="opacity:0;fill:none"
         id="path972" />
    </g>
    <g
       id="axes_1">
      <g
         id="patch_2">
        <path
           clip-path="url(#p97a6637680)"
           d="M 17.754545,237.59978 H 160.07699 L 17.754545,95.27733 Z"
           style="fill:#fedcb4"
           id="path975" />
      </g>
      <g
         id="patch_3">
        <path
           clip-path="url(#p97a6637680)"
           d="M 302.39944,152.20631 372.84546,81.760292 302.39944,11.314275 231.95342,81.760292 Z"
           style="fill:#baeef8"
           id="path978" />
      </g>
      <g
         id="PathCollection_1">
        <defs
           id="defs982">
          <path
             d="m 0,2.236068 c 0.593012,0 1.161816,-0.235606 1.581139,-0.654929 C 2.000462,1.161816 2.236068,0.593012 2.236068,0 c 0,-0.593012 -0.235606,-1.161816 -0.654929,-1.581139 C 1.161816,-2.000462 0.593012,-2.236068 0,-2.236068 c -0.593012,0 -1.161816,0.235606 -1.581139,0.654929 C -2.000462,-1.161816 -2.236068,-0.593012 -2.236068,0 c 0,0.593012 0.235606,1.161816 0.654929,1.581139 C -1.161816,2.000462 -0.593012,2.236068 0,2.236068 Z"
             id="mce09176b6e"
             style="stroke:#fd971f" />
        </defs>
        <g
           clip-path="url(#p97a6637680)"
           id="g986">
          <use
             style="fill:#fd971f;stroke:#fd971f"
             x="117.42407"
             xlink:href="#mce09176b6e"
             y="211.15552"
             id="use984"
             width="100%"
             height="100%" />
        </g>
      </g>
      <g
         id="PathCollection_2">
        <defs
           id="defs990">
          <path
             d="m 0,2.236068 c 0.593012,0 1.161816,-0.235606 1.581139,-0.654929 C 2.000462,1.161816 2.236068,0.593012 2.236068,0 c 0,-0.593012 -0.235606,-1.161816 -0.654929,-1.581139 C 1.161816,-2.000462 0.593012,-2.236068 0,-2.236068 c -0.593012,0 -1.161816,0.235606 -1.581139,0.654929 C -2.000462,-1.161816 -2.236068,-0.593012 -2.236068,0 c 0,0.593012 0.235606,1.161816 0.654929,1.581139 C -1.161816,2.000462 -0.593012,2.236068 0,2.236068 Z"
             id="ma33a52777e"
             style="stroke:#66d9ef" />
        </defs>
        <g
           clip-path="url(#p97a6637680)"
           id="g994">
          <use
             style="fill:#66d9ef;stroke:#66d9ef"
             x="296.87552"
             xlink:href="#ma33a52777e"
             y="116.81053"
             id="use992"
             width="100%"
             height="100%" />
        </g>
      </g>
      <g
         id="PathCollection_3">
        <g
           clip-path="url(#p97a6637680)"
           id="g999">
          <use
             style="fill:#fd971f;stroke:#fd971f"
             x="35.812229"
             xlink:href="#mce09176b6e"
             y="118.74289"
             id="use997"
             width="100%"
             height="100%" />
        </g>
      </g>
      <g
         id="PathCollection_4">
        <g
           clip-path="url(#p97a6637680)"
           id="g1004">
          <use
             style="fill:#66d9ef;stroke:#66d9ef"
             x="302.78531"
             xlink:href="#ma33a52777e"
             y="48.803543"
             id="use1002"
             width="100%"
             height="100%" />
        </g>
      </g>
      <g
         id="PathCollection_5">
        <g
           clip-path="url(#p97a6637680)"
           id="g1009">
          <use
             style="fill:#fd971f;stroke:#fd971f"
             x="44.322281"
             xlink:href="#mce09176b6e"
             y="164.0399"
             id="use1007"
             width="100%"
             height="100%" />
        </g>
      </g>
      <g
         id="PathCollection_6">
        <g
           clip-path="url(#p97a6637680)"
           id="g1014">
          <use
             style="fill:#66d9ef;stroke:#66d9ef"
             x="290.64697"
             xlink:href="#ma33a52777e"
             y="62.485394"
             id="use1012"
             width="100%"
             height="100%" />
        </g>
      </g>
      <g
         id="PathCollection_7">
        <g
           clip-path="url(#p97a6637680)"
           id="g1019">
          <use
             style="fill:#fd971f;stroke:#fd971f"
             x="71.172661"
             xlink:href="#mce09176b6e"
             y="211.7596"
             id="use1017"
             width="100%"
             height="100%" />
        </g>
      </g>
      <g
         id="PathCollection_8">
        <g
           clip-path="url(#p97a6637680)"
           id="g1024">
          <use
             style="fill:#66d9ef;stroke:#66d9ef"
             x="308.81314"
             xlink:href="#ma33a52777e"
             y="78.790787"
             id="use1022"
             width="100%"
             height="100%" />
        </g>
      </g>
      <g
         id="PathCollection_9">
        <g
           clip-path="url(#p97a6637680)"
           id="g1029">
          <use
             style="fill:#fd971f;stroke:#fd971f"
             x="96.114716"
             xlink:href="#mce09176b6e"
             y="189.88879"
             id="use1027"
             width="100%"
             height="100%" />
        </g>
      </g>
      <g
         id="PathCollection_10">
        <g
           clip-path="url(#p97a6637680)"
           id="g1034">
          <use
             style="fill:#66d9ef;stroke:#66d9ef"
             x="320.89456"
             xlink:href="#ma33a52777e"
             y="84.049835"
             id="use1032"
             width="100%"
             height="100%" />
        </g>
      </g>
      <g
         id="line2d_1">
        <path
           clip-path="url(#p97a6637680)"
           d="m 117.42408,211.15551 31.06802,-20.0982 28.61498,-23.51528 34.81692,-21.47555 50.36892,-5.65357 34.58261,-23.60238"
           style="fill:none;stroke:#ae81ff;stroke-width:1.5;stroke-linecap:square"
           id="path1037" />
      </g>
      <g
         id="line2d_2">
        <path
           clip-path="url(#p97a6637680)"
           d="m 35.812228,118.74289 55.175281,-1.00533 51.459421,-12.85983 60.78962,-21.004452 50.85682,-14.861671 48.69194,-20.208064"
           style="fill:none;stroke:#ae81ff;stroke-width:1.5;stroke-linecap:square"
           id="path1040" />
      </g>
      <g
         id="line2d_3">
        <path
           clip-path="url(#p97a6637680)"
           d="M 44.322279,164.03991 90.656533,147.75872 143.16596,133.50019 198.03203,95.105564 248.96029,81.993437 290.64697,62.485393"
           style="fill:none;stroke:#ae81ff;stroke-width:1.5;stroke-linecap:square"
           id="path1043" />
      </g>
      <g
         id="line2d_4">
        <path
           clip-path="url(#p97a6637680)"
           d="m 71.172659,211.7596 41.715171,-29.78092 49.52804,-22.83708 53.77066,-36.89831 53.11455,-16.98436 39.51206,-26.468143"
           style="fill:none;stroke:#ae81ff;stroke-width:1.5;stroke-linecap:square"
           id="path1046" />
      </g>
      <g
         id="line2d_5">
        <path
           clip-path="url(#p97a6637680)"
           d="m 96.114716,189.88879 33.910204,-28.05536 39.17282,-31.76152 49.21028,-16.69548 45.01502,-18.66682 57.47151,-10.659774"
           style="fill:none;stroke:#ae81ff;stroke-width:1.5;stroke-linecap:square"
           id="path1049" />
      </g>
    </g>
  </g>
  <defs
     id="defs1057">
    <clipPath
       id="p97a6637680">
      <rect
         height="248.91405"
         width="390.60001"
         x="0"
         y="0"
         id="rect1054" />
    </clipPath>
  </defs>
  <g
     style="stroke-linecap:butt;stroke-linejoin:round"
     id="g1219"
     transform="translate(390.6)">
    <g
       id="figure_1-9">
      <g
         id="patch_1-7">
        <path
           d="M 0,248.91405 H 390.6 V 0 H 0 Z"
           style="opacity:0;fill:none"
           id="path1069" />
      </g>
      <g
         id="axes_1-0">
        <g
           id="patch_2-3">
          <path
             clip-path="url(#pb5798531d0)"
             d="M 17.754545,237.59978 H 160.07699 L 17.754545,95.27733 Z"
             style="fill:#fedcb4"
             id="path1072" />
        </g>
        <g
           id="patch_3-9">
          <path
             clip-path="url(#pb5798531d0)"
             d="M 302.39944,152.20631 372.84546,81.760292 302.39944,11.314275 231.95342,81.760292 Z"
             style="fill:#baeef8"
             id="path1075" />
        </g>
        <g
           id="PathCollection_1-8">
          <defs
             id="defs1079">
            <path
               d="m 0,2.236068 c 0.593012,0 1.161816,-0.235606 1.581139,-0.654929 C 2.000462,1.161816 2.236068,0.593012 2.236068,0 c 0,-0.593012 -0.235606,-1.161816 -0.654929,-1.581139 C 1.161816,-2.000462 0.593012,-2.236068 0,-2.236068 c -0.593012,0 -1.161816,0.235606 -1.581139,0.654929 C -2.000462,-1.161816 -2.236068,-0.593012 -2.236068,0 c 0,0.593012 0.235606,1.161816 0.654929,1.581139 C -1.161816,2.000462 -0.593012,2.236068 0,2.236068 Z"
               id="path1171"
               style="stroke:#fd971f" />
          </defs>
          <g
             clip-path="url(#pb5798531d0)"
             id="g1083">
            <use
               style="fill:#fd971f;stroke:#fd971f"
               x="88.036125"
               xlink:href="#m612bef87fd"
               y="206.80942"
               id="use1081"
               width="100%"
               height="100%" />
          </g>
        </g>
        <g
           id="PathCollection_2-6">
          <defs
             id="defs1087">
            <path
               d="m 0,2.236068 c 0.593012,0 1.161816,-0.235606 1.581139,-0.654929 C 2.000462,1.161816 2.236068,0.593012 2.236068,0 c 0,-0.593012 -0.235606,-1.161816 -0.654929,-1.581139 C 1.161816,-2.000462 0.593012,-2.236068 0,-2.236068 c -0.593012,0 -1.161816,0.235606 -1.581139,0.654929 C -2.000462,-1.161816 -2.236068,-0.593012 -2.236068,0 c 0,0.593012 0.235606,1.161816 0.654929,1.581139 C -1.161816,2.000462 -0.593012,2.236068 0,2.236068 Z"
               id="path1177"
               style="stroke:#66d9ef" />
          </defs>
          <g
             clip-path="url(#pb5798531d0)"
             id="g1091">
            <use
               style="fill:#66d9ef;stroke:#66d9ef"
               x="317.61801"
               xlink:href="#m5dd7ce8ec6"
               y="90.866577"
               id="use1089"
               width="100%"
               height="100%" />
          </g>
        </g>
        <g
           id="PathCollection_3-5">
          <g
             clip-path="url(#pb5798531d0)"
             id="g1096">
            <use
               style="fill:#fd971f;stroke:#fd971f"
               x="108.35452"
               xlink:href="#m612bef87fd"
               y="232.17598"
               id="use1094"
               width="100%"
               height="100%" />
          </g>
        </g>
        <g
           id="PathCollection_4-7">
          <g
             clip-path="url(#pb5798531d0)"
             id="g1101">
            <use
               style="fill:#66d9ef;stroke:#66d9ef"
               x="320.80225"
               xlink:href="#m5dd7ce8ec6"
               y="122.22492"
               id="use1099"
               width="100%"
               height="100%" />
          </g>
        </g>
        <g
           id="PathCollection_5-6">
          <g
             clip-path="url(#pb5798531d0)"
             id="g1106">
            <use
               style="fill:#fd971f;stroke:#fd971f"
               x="107.61333"
               xlink:href="#m612bef87fd"
               y="227.87971"
               id="use1104"
               width="100%"
               height="100%" />
          </g>
        </g>
        <g
           id="PathCollection_6-2">
          <g
             clip-path="url(#pb5798531d0)"
             id="g1111">
            <use
               style="fill:#66d9ef;stroke:#66d9ef"
               x="325.28348"
               xlink:href="#m5dd7ce8ec6"
               y="113.36127"
               id="use1109"
               width="100%"
               height="100%" />
          </g>
        </g>
        <g
           id="PathCollection_7-7">
          <g
             clip-path="url(#pb5798531d0)"
             id="g1116">
            <use
               style="fill:#fd971f;stroke:#fd971f"
               x="52.212734"
               xlink:href="#m612bef87fd"
               y="145.5197"
               id="use1114"
               width="100%"
               height="100%" />
          </g>
        </g>
        <g
           id="PathCollection_8-0">
          <g
             clip-path="url(#pb5798531d0)"
             id="g1121">
            <use
               style="fill:#66d9ef;stroke:#66d9ef"
               x="305.27615"
               xlink:href="#m5dd7ce8ec6"
               y="39.186378"
               id="use1119"
               width="100%"
               height="100%" />
          </g>
        </g>
        <g
           id="PathCollection_9-3">
          <g
             clip-path="url(#pb5798531d0)"
             id="g1126">
            <use
               style="fill:#fd971f;stroke:#fd971f"
               x="136.87279"
               xlink:href="#m612bef87fd"
               y="235.34233"
               id="use1124"
               width="100%"
               height="100%" />
          </g>
        </g>
        <g
           id="PathCollection_10-9">
          <g
             clip-path="url(#pb5798531d0)"
             id="g1131">
            <use
               style="fill:#66d9ef;stroke:#66d9ef"
               x="329.85999"
               xlink:href="#m5dd7ce8ec6"
               y="123.03049"
               id="use1129"
               width="100%"
               height="100%" />
          </g>
        </g>
        <g
           id="line2d_1-9">
          <path
             clip-path="url(#pb5798531d0)"
             d="m 88.036122,206.80941 3.934351,-2.23041 0.61574,-0.39522 1.585486,-0.68385 2.607748,-1.47269 1.953142,-1.0704 0.804469,-0.53362 0.379445,-0.19319 0.621397,-0.39069 0.57516,-0.28999 2.23962,-1.41312 0.44092,-0.27163 2.93835,-1.96827 0.68923,-0.41499 1.26261,-0.76641 0.9222,-0.44697 0.839,-0.64877 2.25501,-1.39207 1.90548,-1.05272 0.37355,-0.25133 0.44668,-0.21634 0.42081,-0.2444 0.91634,-0.4533 1.49046,-1.07548 0.64386,-0.29167 0.36901,-0.21818 8.72345,-5.30867 0.37268,-0.2318 0.66381,-0.51296 0.62436,-0.28344 0.40916,-0.26387 0.40754,-0.28246 1.71589,-0.70697 1.09104,-0.715 0.44292,-0.26053 0.91488,-0.66162 0.79313,-0.50622 1.25756,-0.76919 0.35319,-0.18374 0.66567,-0.37175 0.38646,-0.19049 1.15848,-0.77674 0.31077,-0.25544 0.41246,-0.12309 0.66889,-0.44421 2.21506,-1.20432 1.53901,-0.84995 0.22259,-0.21294 0.76403,-0.29264 1.45625,-0.95123 0.21139,-0.0591 0.53457,-0.43479 5.71856,-3.28011 0.57197,-0.44837 2.02225,-1.28276 0.89395,-0.78596 1.20752,-0.74827 0.74948,-0.34351 0.3882,-0.21594 0.94753,-0.58815 0.75529,-0.60989 0.4852,-0.28366 0.35426,-0.31792 1.29747,-0.63592 3.88524,-2.51104 0.49964,-0.28833 0.35311,-0.28317 0.51351,-0.24453 0.72232,-0.33734 0.24572,-0.0415 0.14711,-0.14182 2.03085,-0.90024 0.39575,-0.28908 0.46186,-0.25732 0.38434,-0.33961 0.47314,-0.22469 0.20277,-0.19578 0.78218,-0.25876 1.70997,-0.75445 1.12577,-0.7356 0.20907,-0.0361 0.42925,-0.24066 0.56081,-0.18166 0.81466,-0.64301 1.7269,-0.87643 1.52102,-1.03229 0.76544,-0.33364 0.56009,-0.43548 2.55549,-1.79313 1.70694,-1.17072 1.50899,-0.5726 0.81515,-0.60978 0.5225,-0.34384 1.56376,-0.59834 0.17855,-0.15929 1.11138,-0.46249 1.2623,-0.98396 0.71999,-0.32279 3.02432,-1.64117 0.37618,-0.34402 3.65934,-1.81243 0.55632,-0.36137 0.77224,-0.32426 0.23479,-0.0458 0.17535,-0.17193 0.78127,-0.35394 1.74693,-0.90334 0.46352,-0.1853 3.99547,-2.03812 0.9178,-0.24852 0.46536,-0.2622 0.58834,-0.43845 0.39707,-0.2741 1.68196,-0.88605 0.54676,-0.21819 0.099,-0.17674 0.42986,-0.24622 2.85996,-1.03084 0.28679,-0.0327 0.4386,-0.23867 4.23115,-1.77214 0.17878,-0.13932 0.27322,-0.006 0.43774,-0.29008 0.53999,-0.22135 0.4744,-0.27476 0.93674,-0.26379 0.15885,-0.16117 0.88278,-0.22582 0.86304,-0.51679 3.82006,-1.65656 0.73643,-0.42477 0.80229,-0.22986 0.98186,-0.5553 2.02915,-0.76972 0.94927,-0.26674 0.17045,-0.13714 0.58185,-0.20139 0.96573,-0.37283 0.51577,-0.16299 0.42453,-0.29918 0.67713,-0.38035 0.572,-0.16878 0.31167,-0.0523 0.13928,-0.15899 0.42699,-0.23173 0.70761,-0.30333 0.25875,-0.0546 0.18659,-0.15792 2.84629,-0.86925 0.37824,-0.27083 0.8315,-0.31706 0.84989,-0.61527 0.28578,-0.0512 0.45096,-0.2574 1.85547,-0.84175 0.22827,-0.13473 0.54914,-0.1015 1.7028,-0.68157 3.36675,-1.43987 0.48914,-0.24249 0.31565,-0.003 3.81878,-1.67457 1.7566,-0.8958 0.95773,-0.41204 0.91178,-0.14337 0.50777,-0.16301 0.15797,-0.14257 0.28743,-0.025 3.92768,-1.7522 0.86365,-0.0964 0.74715,-0.41428 1.05058,-0.49544 0.77827,-0.15542 0.57431,-0.16888 0.72052,-0.37373 1.0484,-0.2483 4.26982,-2.01623 0.44698,-0.18271 2.66986,-0.97125 1.01332,-0.40518 0.49302,-0.15929 0.79552,-0.3117 2.42043,-1.02465 0.83045,-0.50273 0.4626,-0.20896 0.98019,-0.407 0.15466,-0.14558 0.3054,0.002 0.50367,-0.20429 0.30322,-0.013 0.7361,-0.38585 0.59241,-0.17135 1.06221,-0.37686 0.6907,-0.338682 1.57056,-0.610537 0.37871,-0.286168 0.30265,-0.01573 0.65564,-0.363661 3.95355,-1.421012 2.50678,-1.017219 0.80288,-0.212521 0.4427,-0.186929 1.10016,-0.239323 1.46717,-0.689111 0.51709,-0.228648 0.71527,-0.307597 0.70072,-0.3547 4.31027,-1.70564 0.285,-0.02674 2.74985,-1.398185 v 0"
             style="fill:none;stroke:#ae81ff;stroke-width:1.5;stroke-linecap:square"
             id="path1134" />
        </g>
        <g
           id="line2d_2-9">
          <path
             clip-path="url(#pb5798531d0)"
             d="m 108.35452,232.17598 0.68216,-0.49044 0.74954,-0.65326 0.75167,-0.47006 2.17502,-1.81109 1.3943,-1.10052 3.36017,-2.51861 1.30525,-0.99112 1.09705,-0.88267 0.38554,-0.32507 0.41871,-0.34091 1.0532,-0.86955 0.42831,-0.37036 0.32701,-0.2931 0.36403,-0.27155 6.21327,-4.94722 0.64992,-0.37343 0.37503,-0.28586 0.63839,-0.46737 1.49169,-1.34679 0.54731,-0.40916 0.43471,-0.27578 0.30694,-0.31827 3.36501,-2.3892 1.34825,-0.82781 0.3788,-0.26994 0.43163,-0.32487 0.61227,-0.65855 3.10475,-2.32175 1.03678,-0.61062 0.60077,-0.43238 0.85907,-0.494 0.3248,-0.27098 1.07118,-0.7118 0.88058,-0.49782 1.17408,-0.69973 0.79682,-0.44966 0.99937,-0.79419 0.45161,-0.23973 0.56702,-0.4413 1.34593,-0.97273 2.25764,-1.28854 1.96817,-1.3506 0.74336,-0.55959 1.10606,-0.69244 0.34387,-0.27012 0.68611,-0.42814 0.89795,-0.86646 4.21021,-2.75276 0.48153,-0.42729 1.34346,-0.72055 5.48486,-3.38471 2.89047,-2.10444 2.9712,-1.89551 0.61972,-0.48638 0.76193,-0.39369 1.10615,-0.65306 0.3911,-0.16889 1.27745,-0.83433 0.64507,-0.36714 1.36101,-0.7689 0.5614,-0.37056 0.88206,-0.63613 0.55084,-0.27258 0.37424,-0.27412 1.70746,-1.07695 0.67963,-0.40812 0.57521,-0.253 0.34979,-0.26146 4.99321,-2.87941 2.58789,-1.24833 0.117,-0.12921 1.49047,-0.7513 0.59317,-0.34861 1.37822,-0.58229 0.50414,-0.33833 0.85129,-0.44575 5.30864,-3.05977 0.57903,-0.22997 0.51216,-0.27591 0.90785,-0.46998 0.61396,-0.32363 1.89595,-0.96765 0.29327,-0.20356 3.43768,-1.85402 1.69672,-0.96735 3.26318,-1.67793 1.17278,-0.57088 0.39852,-0.25781 0.63656,-0.2198 2.30592,-1.06588 1.08115,-0.42951 1.94461,-0.83411 0.65808,-0.23498 2.2339,-1.0149 0.35002,-0.18408 0.39824,-0.20435 0.63163,-0.27147 0.60858,-0.2661 10.1863,-4.25783 0.71003,-0.26815 2.66152,-1.33467 5.71732,-2.35253 2.90912,-1.25626 1.18642,-0.42225 0.93867,-0.42425 2.79408,-1.04875 0.42705,-0.18179 0.75494,-0.32685 0.44607,-0.11927 0.63648,-0.32991 0.49,-0.11062 2.58655,-1.07135 2.96649,-1.02749 0.67892,-0.2821 2.96249,-0.96958 1.58568,-0.46265 0.16979,-0.1194 0.70147,-0.19763 0.65185,-0.28549 0.94036,-0.39562 0.99047,-0.30498 1.21296,-0.36112 0.63701,-0.26581 0.63829,-0.30176 0.17949,-0.11192 0.7552,-0.19882 0.51581,-0.17499 1.54131,-0.45239 0.7053,-0.23904 3.27096,-0.91724 0.48605,-0.15421 0.89808,-0.34297 0.49736,-0.16762 1.0799,-0.31899 1.56449,-0.43122 1.96346,-0.67857 1.9507,-0.41728 1.81198,-0.6216 1.87575,-0.4124 1.9069,-0.3259 3.72605,-1.35021 0.44115,-0.17969 0.73421,-0.18893 0.47881,-0.12653 0.63647,-0.31618 0.16372,-0.11275 1.06428,-0.10445 0.60273,-0.28313 0.45478,-0.1397 1.95954,-0.61248 0.40098,-0.19387 3.14397,-0.65046 0.18238,-0.0961 0.57301,-0.11728 2.7938,-0.81921 0.5191,-0.14412 1.81998,-0.58011 v 0"
             style="fill:none;stroke:#ae81ff;stroke-width:1.5;stroke-linecap:square"
             id="path1137" />
        </g>
        <g
           id="line2d_3-1">
          <path
             clip-path="url(#pb5798531d0)"
             d="m 107.61334,227.87972 2.8719,-2.04869 0.57084,-0.34449 0.3786,-0.29155 1.30947,-0.88527 1.79727,-1.31013 0.54374,-0.35441 1.63065,-1.23042 0.79441,-0.4902 1.06542,-0.74916 0.37896,-0.3217 4.36336,-3.25369 0.40783,-0.34531 0.96072,-0.72229 3.20542,-2.42864 0.35566,-0.26626 1.51666,-0.99862 0.65544,-0.44826 0.42531,-0.26593 5.14063,-3.90208 0.33961,-0.26749 0.87782,-0.78726 0.3777,-0.2616 2.38702,-1.69445 0.7019,-0.42895 4.15486,-2.79343 1.36001,-0.98816 0.66501,-0.52435 0.5772,-0.40061 4.78273,-3.50433 0.32228,-0.23005 0.47661,-0.44482 0.3651,-0.30588 0.95463,-0.51245 0.86253,-0.65928 0.87082,-0.4665 5.94578,-4.66472 0.59154,-0.33205 1.19601,-1.00132 0.30167,-0.24908 0.43992,-0.29976 1.38591,-0.74472 0.68463,-0.37993 0.37243,-0.23606 0.86197,-0.45121 0.48235,-0.43644 0.70282,-0.48349 0.33402,-0.18558 0.39165,-0.23701 0.30506,-0.29862 0.81426,-0.55942 1.07685,-0.73358 0.97239,-0.73878 0.81847,-0.53097 0.37316,-0.2218 0.66537,-0.32063 5.05889,-3.34507 0.38832,-0.31172 0.98005,-0.50306 0.27506,-0.21923 0.38897,-0.18605 0.62915,-0.37708 0.50102,-0.39549 0.54952,-0.37736 2.26493,-1.45281 0.73565,-0.60083 0.69226,-0.34177 0.52324,-0.35238 0.90909,-0.6035 3.18938,-1.86576 0.59678,-0.22107 1.90937,-1.58178 0.52986,-0.35281 1.15484,-0.66901 0.96389,-0.55749 0.25096,-0.29323 1.05208,-0.59156 0.4606,-0.16167 0.33155,-0.26951 0.54186,-0.25482 0.36532,-0.15857 0.47005,-0.26985 0.13404,-0.14294 0.77424,-0.31811 5.72113,-3.18127 1.17616,-0.47492 5.40127,-2.73453 0.8461,-0.46853 0.57772,-0.39197 1.12115,-0.53227 0.396,-0.25099 0.41,-0.21705 0.77208,-0.41368 0.58348,-0.39785 0.82812,-0.45999 1.22599,-0.5789 2.39724,-1.31351 0.60055,-0.31659 1.59334,-0.71979 1.48646,-0.77175 1.67613,-0.89267 0.43439,-0.16048 3.33554,-1.70754 0.41118,-0.123 4.64414,-1.97183 0.43306,-0.17257 1.1425,-0.56513 1.13895,-0.60305 3.6396,-1.55725 2.41392,-1.0129 5.70076,-2.28274 3.47469,-1.55028 0.85182,-0.49001 1.09484,-0.32884 3.49567,-1.62147 1.51003,-0.56288 0.42074,-0.22119 1.65678,-0.4516 1.76968,-0.9603 0.62826,-0.22533 3.71633,-1.46348 1.28776,-0.39567 0.45695,-0.24376 0.73635,-0.17371 0.48196,-0.15256 0.68593,-0.33482 1.57162,-0.69599 1.35365,-0.39328 1.26213,-0.41328 1.19601,-0.32917 1.16643,-0.51418 0.68131,-0.25295 6.49603,-2.21556 0.73496,-0.26483 1.07753,-0.2412 1.75046,-0.79799 0.57786,-0.0994 2.45543,-0.85529 0.9016,-0.37861 0.79051,-0.2266 1.19545,-0.4425 0.17234,-0.12793 0.83744,-0.20071 1.01892,-0.29688 0.83229,-0.19858 0.57744,-0.2433 0.60244,0.005 2.00946,-0.64476 0.4918,-0.13862 4.84664,-1.2533 0.84547,-0.28484 5.07842,-1.49744 1.05816,-0.29783 0.84034,-0.17685 0.6032,-0.0829 0.70039,-0.27855 1.25666,-0.47271 5.77459,-1.78903 0.5699,-0.0564 0.18317,-0.10733 v 0"
             style="fill:none;stroke:#ae81ff;stroke-width:1.5;stroke-linecap:square"
             id="path1140" />
        </g>
        <g
           id="line2d_4-7">
          <path
             clip-path="url(#pb5798531d0)"
             d="m 52.212734,145.51971 0.504498,-0.18896 8.313336,-2.19396 0.775435,-0.17557 0.968493,-0.16291 1.943434,-0.59336 0.764065,-0.20299 4.390062,-1.11696 0.460294,-0.0493 0.50637,-0.16264 0.526057,-0.0878 2.623636,-0.66324 0.764379,-0.23476 0.737319,-0.0956 0.549453,-0.11421 2.598301,-0.60786 0.780705,-0.13433 3.09264,-0.92047 1.70921,-0.34734 1.50397,-0.52112 0.786155,-0.0464 0.482191,-0.22254 2.016722,-0.47623 0.487077,-0.16898 0.823732,-0.11156 1.270712,-0.31998 0.523555,-0.20606 5.333761,-1.32039 0.660085,-0.2689 1.212873,-0.33455 0.815226,-0.072 1.37111,-0.38192 1.33194,-0.21569 0.80014,-0.20022 0.88817,-0.33291 1.09228,-0.24076 0.51659,-0.11831 0.57591,-0.16852 1.13516,-0.31013 1.45069,-0.43275 1.00942,-0.17123 1.98061,-0.56208 2.78393,-0.50194 2.07658,-0.65737 0.2322,-0.13945 1.72944,-0.37421 0.46853,-0.16523 1.09164,-0.32796 0.72799,-0.20679 0.75626,-0.43101 2.37807,-0.65434 0.76063,-0.29321 0.80551,-0.14368 3.20803,-1.02979 1.59394,-0.46633 0.45125,-0.21773 0.51251,-0.26629 0.53868,-0.13754 0.60866,-0.21313 0.4457,-0.14641 0.48181,-0.1423 1.70368,-0.35052 1.09992,-0.21938 0.56126,-0.14621 0.51062,-0.18727 4.49272,-1.41773 1.09856,-0.20191 3.6498,-0.9414 1.29081,-0.45795 0.32909,-0.0351 0.53004,-0.22186 0.58104,-0.17861 0.54664,-0.2029 1.98077,-0.68051 1.02696,-0.36147 0.78258,-0.21528 0.87755,-0.0884 0.55259,-0.0958 0.93358,-0.2049 0.71421,-0.22636 2.59106,-0.95627 1.01118,-0.37157 0.55607,-0.19545 0.98194,-0.40879 2.16168,-0.85412 0.2466,-0.16548 0.59121,-0.19418 1.14367,-0.34709 0.90216,-0.11173 0.25019,-0.17364 0.59427,-0.14835 0.48165,-0.29185 2.68376,-0.82777 0.20084,-0.14372 0.27512,-0.0303 0.21265,-0.13559 1.13964,-0.29407 0.45888,-0.17816 0.46512,-0.19897 0.58234,-0.2642 1.20347,-0.19724 0.5046,-0.21633 0.70018,-0.24398 0.673,-0.40913 1.72276,-0.85718 0.47187,-0.16587 1.18899,-0.61091 3.38451,-1.44921 0.49467,-0.25034 1.03982,-0.54317 0.77823,-0.26804 0.56344,-0.23929 1.38771,-0.52175 1.98947,-0.57779 0.84612,-0.24812 1.02557,-0.44302 0.50587,-0.30863 0.83007,-0.20167 1.3718,-0.78529 2.5618,-0.85675 5.80106,-2.662569 1.24474,-0.807848 0.52791,-0.138469 1.32113,-0.548532 0.22172,-0.156951 0.29805,-0.01837 0.72628,-0.478155 0.50545,-0.278274 1.05249,-0.315791 2.39211,-1.212965 0.85208,-0.425052 0.52846,-0.26338 0.8971,-0.233102 0.52,-0.217678 0.29418,-0.06078 0.89118,-0.699384 0.56997,-0.284958 0.48166,-0.209907 0.7668,-0.498432 1.86615,-0.720139 0.5059,-0.250536 1.70898,-1.029876 0.44387,-0.271108 1.11506,-0.661667 0.49905,-0.177686 1.29543,-0.752957 1.94351,-1.335222 1.03084,-0.491475 0.53883,-0.379878 0.30059,-0.09341 0.75424,-0.558588 1.04936,-0.553639 0.42747,-0.230493 0.84219,-0.525995 0.67883,-0.472945 0.23358,-0.192628 1.09331,-0.345123 1.67118,-1.228409 0.73735,-0.403183 0.42982,-0.315739 0.575,-0.162436 0.43652,-0.31659 0.77672,-0.311702 1.8429,-0.781873 0.21224,-0.180401 0.86745,-0.288167 1.05548,-0.632036 1.90096,-1.073358 0.57263,-0.208692 2.38888,-1.474593 1.35961,-0.849628 0.26019,-0.07455 0.18991,-0.196998 0.56202,-0.171348 3.092,-1.538818 0.47969,-0.30971 0.41111,-0.340489 0.4081,-0.393032 0.43429,-0.329225 0.91114,-0.758475 0.44907,-0.275959 0.40152,-0.322527 0.29924,-0.103285 0.47803,-0.338311 1.09143,-0.81043 0.40608,-0.318444 2.05544,-0.940492 0.18699,-0.206283 0.54552,-0.292959 0.70415,-0.418118 0.51329,-0.272928 0.27882,-0.05782 2.34757,-1.574138 0.45638,-0.266707 1.26504,-0.955177 1.80998,-0.983727 1.466,-0.869818 0.68478,-0.413875 1.26537,-1.096799 2.92932,-1.575426 0.16716,-0.182608 0.84484,-0.263124 3.98885,-2.65573 0.48325,-0.233353 0.53441,-0.530029 2.68559,-1.710089 0.44244,-0.284008 0.97951,-0.65846 0.17532,-0.17974 0.79792,-0.402959 1.35514,-1.044753 0.52384,-0.288037 0.40717,-0.284813 2.04666,-1.39398 0.38415,-0.370964 0.79214,-0.386744 0.16791,-0.175999 0.55317,-0.288593 0.44509,-0.349777 0.57613,-0.287167 2.36685,-1.690091 0.80072,-0.39833 0.4224,-0.271357 2.26696,-1.381215 1.20307,-0.743394 1.20769,-0.736897 2.16686,-1.453191 1.08589,-0.812623 v 0"
             style="fill:none;stroke:#ae81ff;stroke-width:1.5;stroke-linecap:square"
             id="path1143" />
        </g>
        <g
           id="line2d_5-2">
          <path
             clip-path="url(#pb5798531d0)"
             d="m 136.87278,235.34232 0.44643,-0.47764 0.82723,-0.63578 0.52323,-0.48422 0.48078,-0.5572 0.48967,-0.55765 1.24778,-0.93393 0.73233,-0.69874 0.42202,-0.41846 0.29838,-0.33869 0.58374,-0.39703 1.06629,-1.13355 0.31481,-0.30429 1.40175,-1.41702 2.45247,-1.9736 1.58572,-1.21931 0.51231,-0.48575 2.17592,-1.84525 0.5044,-0.47164 1.49127,-1.13637 0.3933,-0.39765 0.56244,-0.56705 2.4395,-2.10924 5.56166,-4.33258 0.65123,-0.52458 0.51661,-0.42549 1.31216,-0.90327 1.85554,-1.43366 0.56788,-0.34344 0.92528,-0.76332 0.73587,-0.53617 0.27933,-0.24808 1.61169,-0.97667 1.45671,-0.9638 1.26002,-0.91742 2.5513,-1.64556 0.52192,-0.36291 2.01631,-1.33951 5.51962,-3.7677 1.51958,-0.96025 0.93934,-0.60222 10.58906,-7.18517 0.31307,-0.27153 1.14232,-0.68132 1.26956,-0.85187 1.29385,-0.84119 0.88921,-0.59271 1.58456,-1.01014 1.49196,-0.94949 2.24781,-1.25389 0.62996,-0.48602 0.68156,-0.39397 0.85726,-0.5651 1.09612,-0.68343 2.034,-1.18404 0.48372,-0.29367 0.88231,-0.50087 1.7054,-1.00688 0.50121,-0.34716 0.93854,-0.56166 1.2773,-0.74608 0.52301,-0.34528 1.07888,-0.71139 14.74299,-9.00914 0.9456,-0.52401 0.59114,-0.35743 0.96818,-0.5367 1.39469,-0.75757 0.75834,-0.41226 2.18039,-1.19916 0.3759,-0.23256 1.8011,-0.98009 0.69207,-0.44879 3.40227,-1.78313 0.56499,-0.32021 2.83016,-1.43744 1.22206,-0.62073 1.4369,-0.73796 1.00538,-0.53869 1.33893,-0.71503 0.77412,-0.41587 1.76128,-0.95796 2.28722,-1.258 1.19941,-0.65103 5.88245,-3.06796 0.75834,-0.38807 1.03735,-0.47088 1.89229,-0.91777 0.95951,-0.50931 1.83037,-0.87741 4.01671,-1.91368 3.41943,-1.57664 2.38168,-0.98647 3.08218,-1.39291 17.18585,-7.34263 2.08478,-0.88974 2.61996,-1.08213 2.08629,-0.66142 0.8361,-0.23584 3.35169,-1.32194 0.899,-0.31779 0.9893,-0.34194 1.09741,-0.31739 1.05718,-0.32195 0.95839,-0.36665 2.57221,-0.80245 1.1497,-0.13031 1.53069,-0.45756 2.48011,-0.6476 0.29064,-0.0101 v 0"
             style="fill:none;stroke:#ae81ff;stroke-width:1.5;stroke-linecap:square"
             id="path1146" />
        </g>
      </g>
    </g>
  </g>
</svg>
