<?xml version="1.0" encoding="UTF-8" standalone="no"?>
<!-- Created with Inkscape (http://www.inkscape.org/) -->

<svg
   width="129.68277mm"
   height="123.47618mm"
   viewBox="0 0 129.68277 123.47618"
   version="1.1"
   id="svg1"
   xml:space="preserve"
   xmlns:xlink="http://www.w3.org/1999/xlink"
   xmlns="http://www.w3.org/2000/svg"
   xmlns:svg="http://www.w3.org/2000/svg"><defs
     id="defs1"><linearGradient
       id="linearGradient86"><stop
         style="stop-color:#9ef9ff;stop-opacity:1;"
         offset="0"
         id="stop85" /><stop
         style="stop-color:#9ef9ff;stop-opacity:0.80000001;"
         offset="1"
         id="stop86" /></linearGradient><linearGradient
       id="linearGradient68"><stop
         style="stop-color:#a697ff;stop-opacity:1;"
         offset="0"
         id="stop67" /><stop
         style="stop-color:#a697ff;stop-opacity:0.80000001;"
         offset="1"
         id="stop68" /></linearGradient><linearGradient
       id="linearGradient66"><stop
         style="stop-color:#fda3ff;stop-opacity:1;"
         offset="0"
         id="stop65" /><stop
         style="stop-color:#fda3ff;stop-opacity:0.80000001;"
         offset="1"
         id="stop66" /></linearGradient><linearGradient
       id="linearGradient64"><stop
         style="stop-color:#fffb87;stop-opacity:1;"
         offset="0"
         id="stop63" /><stop
         style="stop-color:#fffb87;stop-opacity:0.80000001;"
         offset="1"
         id="stop64" /></linearGradient><linearGradient
       id="linearGradient61"><stop
         style="stop-color:#9ef9ff;stop-opacity:1;"
         offset="0"
         id="stop61" /><stop
         style="stop-color:#9ef9ff;stop-opacity:0.69999999;"
         offset="1"
         id="stop62" /></linearGradient><linearGradient
       id="linearGradient43"><stop
         style="stop-color:#fffb87;stop-opacity:0.78317153;"
         offset="0"
         id="stop43" /><stop
         style="stop-color:#fffb87;stop-opacity:0.49514562;"
         offset="1"
         id="stop44" /></linearGradient><linearGradient
       id="linearGradient41"><stop
         style="stop-color:#fda3ff;stop-opacity:1;"
         offset="0"
         id="stop41" /><stop
         style="stop-color:#fda3ff;stop-opacity:0.72491908;"
         offset="1"
         id="stop42" /></linearGradient><linearGradient
       id="linearGradient39"><stop
         style="stop-color:#a697ff;stop-opacity:1;"
         offset="0"
         id="stop39" /><stop
         style="stop-color:#a697ff;stop-opacity:0.64077669;"
         offset="1"
         id="stop40" /></linearGradient><clipPath
       clipPathUnits="userSpaceOnUse"
       id="clipPath5"><ellipse
         style="fill:#a60097;fill-opacity:1;stroke-width:0.458999;stroke-linecap:round;stroke-linejoin:round"
         id="ellipse6"
         cx="77.661377"
         cy="90.392746"
         rx="39.976513"
         ry="40.995018" /></clipPath><clipPath
       clipPathUnits="userSpaceOnUse"
       id="clipPath17"><g
         id="g20"
         transform="matrix(6.1842518,0,0,6.1842518,-108.69184,-422.73043)"><g
           style="fill:none"
           id="g18"
           transform="matrix(0.16170105,0,0,0.16170105,48.799122,96.468952)"><rect
             width="141"
             height="117"
             rx="20"
             fill="#A697FF"
             style="fill:#a697ff;fill-opacity:1"
             id="rect17"
             x="0"
             y="0" /></g><rect
           x="73.292625"
           y="96.468956"
           width="18.919024"
           height="105.91418"
           rx="3.2340209"
           fill="#FDA3FF"
           style="fill:#fda3ff;fill-opacity:1;stroke-width:0.161701"
           id="rect18" /><g
           style="fill:none"
           id="g19"
           transform="matrix(0.16170105,0,0,0.16170105,16.301477,66.715958)"><path
             d="M 534.77,572.661 C 528.391,559.384 538.067,544 552.798,544 h 136.69 c 6.685,0 12.928,3.34 16.637,8.9 l 170.127,255 c 8.867,13.291 -0.661,31.1 -16.638,31.1 h -184.3 c -7.689,0 -14.697,-4.408 -18.027,-11.339 z"
             fill="#FFFB87"
             style="fill:#fffb87;fill-opacity:1"
             id="path18" /></g></g></clipPath><clipPath
       clipPathUnits="userSpaceOnUse"
       id="clipPath37"><g
         id="g39"
         transform="matrix(6.1842518,0,0,6.1842518,-108.69184,-422.73043)"><g
           style="fill:none"
           id="g37"
           transform="matrix(0.16170105,0,0,0.16170105,48.799122,96.468952)"><rect
             width="141"
             height="117"
             rx="20"
             fill="#A697FF"
             style="fill:#a697ff;fill-opacity:1"
             id="rect37"
             x="0"
             y="0" /></g><rect
           x="73.292625"
           y="96.468956"
           width="18.919024"
           height="105.91418"
           rx="3.2340209"
           fill="#FDA3FF"
           style="fill:#fda3ff;fill-opacity:1;stroke-width:0.161701"
           id="rect38" /><g
           style="fill:none"
           id="g38"
           transform="matrix(0.16170105,0,0,0.16170105,16.301477,66.715958)"><path
             d="M 534.77,572.661 C 528.391,559.384 538.067,544 552.798,544 h 136.69 c 6.685,0 12.928,3.34 16.637,8.9 l 170.127,255 c 8.867,13.291 -0.661,31.1 -16.638,31.1 h -184.3 c -7.689,0 -14.697,-4.408 -18.027,-11.339 z"
             fill="#FFFB87"
             style="fill:#fffb87;fill-opacity:1"
             id="path38" /></g></g></clipPath><filter
       style="color-interpolation-filters:sRGB"
       id="filter39"
       x="-0.048000001"
       y="-0.048000001"
       width="1.096"
       height="1.096"><feGaussianBlur
         stdDeviation="10.74392"
         id="feGaussianBlur39" /></filter><linearGradient
       xlink:href="#linearGradient68"
       id="linearGradient40"
       x1="70.5"
       y1="-12"
       x2="70.5"
       y2="129"
       gradientUnits="userSpaceOnUse" /><linearGradient
       xlink:href="#linearGradient66"
       id="linearGradient42"
       x1="82.752136"
       y1="139.96654"
       x2="82.752136"
       y2="158.88554"
       gradientUnits="userSpaceOnUse" /><linearGradient
       xlink:href="#linearGradient64"
       id="linearGradient44"
       x1="706.21045"
       y1="518.06213"
       x2="706.21045"
       y2="864.93787"
       gradientUnits="userSpaceOnUse" /><filter
       style="color-interpolation-filters:sRGB"
       id="filter46"
       x="-0.074252978"
       y="-0.089484358"
       width="1.148506"
       height="1.1789687"><feGaussianBlur
         stdDeviation="2.0898"
         id="feGaussianBlur46" /></filter><filter
       style="color-interpolation-filters:sRGB"
       id="filter47"
       x="-0.073890208"
       y="-0.013198711"
       width="1.1477804"
       height="1.0263974"><feGaussianBlur
         stdDeviation="0.21499398"
         id="feGaussianBlur47" /></filter><clipPath
       clipPathUnits="userSpaceOnUse"
       id="clipPath49"><g
         style="fill:url(#linearGradient51);fill-opacity:1"
         id="g50"
         transform="translate(-0.94698249,-1.7221639)"><rect
           width="141"
           height="117"
           rx="20"
           fill="#A697FF"
           style="fill:url(#linearGradient50);fill-opacity:1"
           id="rect50"
           x="0"
           y="0" /></g></clipPath><linearGradient
       xlink:href="#linearGradient39"
       id="linearGradient50"
       gradientUnits="userSpaceOnUse"
       x1="70.5"
       y1="-12"
       x2="70.5"
       y2="129" /><linearGradient
       xlink:href="#linearGradient39"
       id="linearGradient51"
       gradientUnits="userSpaceOnUse"
       x1="70.5"
       y1="-12"
       x2="70.5"
       y2="129" /><clipPath
       clipPathUnits="userSpaceOnUse"
       id="clipPath51"><rect
         x="73.292625"
         y="96.468956"
         width="18.919024"
         height="105.91418"
         rx="3.2340209"
         fill="#FDA3FF"
         style="fill:url(#linearGradient52);fill-opacity:1;stroke:#ffffff;stroke-width:0.162;stroke-dasharray:none;stroke-opacity:0.4"
         id="rect52" /></clipPath><linearGradient
       xlink:href="#linearGradient41"
       id="linearGradient52"
       gradientUnits="userSpaceOnUse"
       x1="82.752136"
       y1="139.96652"
       x2="82.752136"
       y2="158.88556" /><filter
       style="color-interpolation-filters:sRGB"
       id="filter57"
       x="-0.027084346"
       y="-0.032031742"
       width="1.0540108"
       height="1.0640635"><feGaussianBlur
         stdDeviation="1.6646724"
         id="feGaussianBlur57" /></filter><clipPath
       clipPathUnits="userSpaceOnUse"
       id="clipPath58"><g
         style="fill:url(#linearGradient60);fill-opacity:1"
         id="g59"
         transform="translate(-3.2725012,-3.272505)"><path
           d="M 534.77,572.661 C 528.391,559.384 538.067,544 552.798,544 h 136.69 c 6.685,0 12.928,3.34 16.637,8.9 l 170.127,255 c 8.867,13.291 -0.661,31.1 -16.638,31.1 h -184.3 c -7.689,0 -14.697,-4.408 -18.027,-11.339 z"
           fill="#FFFB87"
           style="fill:url(#linearGradient59);fill-opacity:1"
           id="path59" /></g></clipPath><linearGradient
       xlink:href="#linearGradient43"
       id="linearGradient59"
       gradientUnits="userSpaceOnUse"
       x1="706.21045"
       y1="518.06213"
       x2="706.21045"
       y2="864.93787" /><linearGradient
       xlink:href="#linearGradient43"
       id="linearGradient60"
       gradientUnits="userSpaceOnUse"
       x1="706.21045"
       y1="518.06213"
       x2="706.21045"
       y2="864.93787" /><linearGradient
       xlink:href="#linearGradient86"
       id="linearGradient62"
       x1="610.68799"
       y1="183.99998"
       x2="610.68799"
       y2="721.19598"
       gradientUnits="userSpaceOnUse" /><filter
       style="color-interpolation-filters:sRGB"
       id="filter69"
       x="-0.017668137"
       y="-0.017668137"
       width="1.0353363"
       height="1.0353363"><feGaussianBlur
         stdDeviation="1.6821261"
         id="feGaussianBlur69" /></filter><clipPath
       clipPathUnits="userSpaceOnUse"
       id="clipPath81"><g
         style="fill:url(#linearGradient85);fill-opacity:1"
         id="g83"
         transform="translate(-3.2725022,-3.2725072)"><path
           d="m 610.688,184 c 148.342,0 268.598,120.256 268.598,268.599 0,148.342 -120.256,268.597 -268.598,268.597 C 462.345,721.196 342.09,600.941 342.09,452.599 342.09,304.256 462.345,184 610.688,184 Z m 0,141.562 c -70.159,0 -127.036,56.877 -127.036,127.037 0.001,70.159 56.877,127.035 127.036,127.035 70.16,-10e-4 127.035,-56.876 127.036,-127.035 0,-70.16 -56.876,-127.036 -127.036,-127.037 z"
           fill="#9EF9FF"
           style="fill:url(#linearGradient83);fill-opacity:1"
           id="path82" /><path
           d="m 610.688,184 c 148.342,0 268.598,120.256 268.598,268.599 0,148.342 -120.256,268.597 -268.598,268.597 C 462.345,721.196 342.09,600.941 342.09,452.599 342.09,304.256 462.345,184 610.688,184 Z m 0,141.562 c -70.159,0 -127.036,56.877 -127.036,127.037 0.001,70.159 56.877,127.035 127.036,127.035 70.16,-10e-4 127.035,-56.876 127.036,-127.035 0,-70.16 -56.876,-127.036 -127.036,-127.037 z"
           fill="#9EF9FF"
           style="fill:url(#linearGradient84);fill-opacity:1"
           id="path83" /></g></clipPath><linearGradient
       xlink:href="#linearGradient61"
       id="linearGradient83"
       gradientUnits="userSpaceOnUse"
       x1="610.68799"
       y1="183.99998"
       x2="610.68799"
       y2="721.19598" /><linearGradient
       xlink:href="#linearGradient61"
       id="linearGradient84"
       gradientUnits="userSpaceOnUse"
       x1="610.68799"
       y1="183.99998"
       x2="610.68799"
       y2="721.19598" /><linearGradient
       xlink:href="#linearGradient61"
       id="linearGradient85"
       gradientUnits="userSpaceOnUse"
       x1="610.68799"
       y1="183.99998"
       x2="610.68799"
       y2="721.19598" /><filter
       style="color-interpolation-filters:sRGB"
       id="filter108"
       x="-0.089352862"
       y="-0.089352862"
       width="1.2159361"
       height="1.2159361"><feFlood
         result="flood"
         in="SourceGraphic"
         flood-opacity="0.498039"
         flood-color="rgb(0,0,0)"
         id="feFlood107" /><feGaussianBlur
         result="blur"
         in="SourceGraphic"
         stdDeviation="20.000000"
         id="feGaussianBlur107" /><feOffset
         result="offset"
         in="blur"
         dx="20.000000"
         dy="20.000000"
         id="feOffset107" /><feComposite
         result="comp1"
         operator="in"
         in="flood"
         in2="offset"
         id="feComposite107" /><feComposite
         result="comp2"
         operator="over"
         in="SourceGraphic"
         in2="comp1"
         id="feComposite108" /></filter><filter
       style="color-interpolation-filters:sRGB"
       id="filter113"
       x="-0.065293344"
       y="-0.068402542"
       width="1.1529935"
       height="1.1600177"><feFlood
         result="flood"
         in="SourceGraphic"
         flood-opacity="0.498039"
         flood-color="rgb(0,0,0)"
         id="feFlood112" /><feGaussianBlur
         result="blur"
         in="SourceGraphic"
         stdDeviation="3.000000"
         id="feGaussianBlur112" /><feOffset
         result="offset"
         in="blur"
         dx="3.000000"
         dy="3.000000"
         id="feOffset112" /><feComposite
         result="comp1"
         operator="in"
         in="flood"
         in2="offset"
         id="feComposite112" /><feComposite
         result="comp2"
         operator="over"
         in="SourceGraphic"
         in2="comp1"
         id="feComposite113" /></filter><linearGradient
       xlink:href="#linearGradient86"
       id="linearGradient113"
       gradientUnits="userSpaceOnUse"
       x1="610.68799"
       y1="183.99998"
       x2="610.68799"
       y2="721.19598" /><linearGradient
       xlink:href="#linearGradient86"
       id="linearGradient114"
       gradientUnits="userSpaceOnUse"
       x1="610.68799"
       y1="183.99998"
       x2="610.68799"
       y2="721.19598" /><linearGradient
       xlink:href="#linearGradient68"
       id="linearGradient115"
       gradientUnits="userSpaceOnUse"
       x1="70.5"
       y1="-12"
       x2="70.5"
       y2="129" /><linearGradient
       xlink:href="#linearGradient64"
       id="linearGradient116"
       gradientUnits="userSpaceOnUse"
       x1="706.21045"
       y1="518.06213"
       x2="706.21045"
       y2="864.93787" /></defs><g
     id="layer1"
     transform="translate(-41.599122,-89.187956)"><g
       style="fill:url(#linearGradient62);fill-opacity:1;filter:url(#filter108)"
       id="g9"
       transform="matrix(0.16170105,0,0,0.16170105,18.104752,68.885121)"><path
         d="m 610.688,184 c 148.342,0 268.598,120.256 268.598,268.599 0,148.342 -120.256,268.597 -268.598,268.597 C 462.345,721.196 342.09,600.941 342.09,452.599 342.09,304.256 462.345,184 610.688,184 Z m 0,141.562 c -70.159,0 -127.036,56.877 -127.036,127.037 0.001,70.159 56.877,127.035 127.036,127.035 70.16,-10e-4 127.035,-56.876 127.036,-127.035 0,-70.16 -56.876,-127.036 -127.036,-127.037 z"
         fill="#9EF9FF"
         style="fill:url(#linearGradient113);fill-opacity:1"
         id="path1-7" /><path
         d="m 610.688,184 c 148.342,0 268.598,120.256 268.598,268.599 0,148.342 -120.256,268.597 -268.598,268.597 C 462.345,721.196 342.09,600.941 342.09,452.599 342.09,304.256 462.345,184 610.688,184 Z m 0,141.562 c -70.159,0 -127.036,56.877 -127.036,127.037 0.001,70.159 56.877,127.035 127.036,127.035 70.16,-10e-4 127.035,-56.876 127.036,-127.035 0,-70.16 -56.876,-127.036 -127.036,-127.037 z"
         fill="#9EF9FF"
         style="fill:url(#linearGradient114);fill-opacity:1"
         id="path20" /></g><g
       style="fill:none;filter:url(#filter39)"
       id="g29"
       transform="matrix(0.16170105,0,0,0.16170105,17.575585,68.355954)"
       clip-path="url(#clipPath37)"><path
         d="m 610.688,184 c 148.342,0 268.598,120.256 268.598,268.599 0,148.342 -120.256,268.597 -268.598,268.597 C 462.345,721.196 342.09,600.941 342.09,452.599 342.09,304.256 462.345,184 610.688,184 Z m 0,141.562 c -70.159,0 -127.036,56.877 -127.036,127.037 0.001,70.159 56.877,127.035 127.036,127.035 70.16,-10e-4 127.035,-56.876 127.036,-127.035 0,-70.16 -56.876,-127.036 -127.036,-127.037 z"
         fill="#9EF9FF"
         style="fill:#9ef9ff;fill-opacity:1"
         id="path28" /><path
         d="m 610.688,184 c 148.342,0 268.598,120.256 268.598,268.599 0,148.342 -120.256,268.597 -268.598,268.597 C 462.345,721.196 342.09,600.941 342.09,452.599 342.09,304.256 462.345,184 610.688,184 Z m 0,141.562 c -70.159,0 -127.036,56.877 -127.036,127.037 0.001,70.159 56.877,127.035 127.036,127.035 70.16,-10e-4 127.035,-56.876 127.036,-127.035 0,-70.16 -56.876,-127.036 -127.036,-127.037 z"
         fill="#9EF9FF"
         style="fill:#9ef9ff;fill-opacity:1"
         id="path29" /></g><g
       style="fill:none"
       id="g8"
       transform="matrix(0.26458333,0,0,0.26458333,-28.971874,1.1906267)" /><g
       style="fill:none"
       id="g14"
       transform="matrix(0.16170105,0,0,0.16170105,17.575585,68.355954)"
       clip-path="url(#clipPath17)"><path
         d="m 610.688,184 c 148.342,0 268.598,120.256 268.598,268.599 0,148.342 -120.256,268.597 -268.598,268.597 C 462.345,721.196 342.09,600.941 342.09,452.599 342.09,304.256 462.345,184 610.688,184 Z m 0,141.562 c -70.159,0 -127.036,56.877 -127.036,127.037 0.001,70.159 56.877,127.035 127.036,127.035 70.16,-10e-4 127.035,-56.876 127.036,-127.035 0,-70.16 -56.876,-127.036 -127.036,-127.037 z"
         fill="#9EF9FF"
         style="fill:#9ef9ff;fill-opacity:1"
         id="path13" /></g><g
       style="fill:none;fill-opacity:1;stroke:#ffffff;stroke-width:10.9083;stroke-dasharray:none;stroke-opacity:0.4;filter:url(#filter69)"
       id="g69"
       transform="matrix(0.16170105,0,0,0.16170105,18.633919,69.414288)"
       clip-path="url(#clipPath81)"><path
         d="m 610.688,184 c 148.342,0 268.598,120.256 268.598,268.599 0,148.342 -120.256,268.597 -268.598,268.597 C 462.345,721.196 342.09,600.941 342.09,452.599 342.09,304.256 462.345,184 610.688,184 Z m 0,141.562 c -70.159,0 -127.036,56.877 -127.036,127.037 0.001,70.159 56.877,127.035 127.036,127.035 70.16,-10e-4 127.035,-56.876 127.036,-127.035 0,-70.16 -56.876,-127.036 -127.036,-127.037 z"
         fill="#9EF9FF"
         style="fill:none;fill-opacity:1;stroke:#ffffff;stroke-width:10.9083;stroke-dasharray:none;stroke-opacity:0.4"
         id="path68" /><path
         d="m 610.688,184 c 148.342,0 268.598,120.256 268.598,268.599 0,148.342 -120.256,268.597 -268.598,268.597 C 462.345,721.196 342.09,600.941 342.09,452.599 342.09,304.256 462.345,184 610.688,184 Z m 0,141.562 c -70.159,0 -127.036,56.877 -127.036,127.037 0.001,70.159 56.877,127.035 127.036,127.035 70.16,-10e-4 127.035,-56.876 127.036,-127.035 0,-70.16 -56.876,-127.036 -127.036,-127.037 z"
         fill="#9EF9FF"
         style="fill:none;fill-opacity:1;stroke:#ffffff;stroke-width:10.9083;stroke-dasharray:none;stroke-opacity:0.4"
         id="path69" /></g><g
       id="g13"
       style="filter:url(#filter113)"><g
         style="fill:url(#linearGradient40);fill-opacity:1"
         id="g10"
         transform="matrix(0.16170105,0,0,0.16170105,48.799122,96.468952)"><rect
           width="141"
           height="117"
           rx="20"
           fill="#A697FF"
           style="fill:url(#linearGradient115);fill-opacity:1"
           id="rect1-8"
           x="0"
           y="0" /></g><g
         style="mix-blend-mode:normal;fill:none;fill-opacity:0;stroke:#ffffff;stroke-width:10.9083;stroke-linecap:round;stroke-dasharray:none;stroke-opacity:0.4;filter:url(#filter46)"
         id="g44"
         transform="matrix(0.16170105,0,0,0.16170105,48.952251,96.747427)"
         clip-path="url(#clipPath49)"><rect
           width="141"
           height="117"
           rx="20"
           fill="#A697FF"
           style="fill:none;fill-opacity:0;stroke:#ffffff;stroke-width:10.9083;stroke-linecap:round;stroke-dasharray:none;stroke-opacity:0.4"
           id="rect44"
           x="0"
           y="0" /></g><rect
         x="73.292625"
         y="96.468956"
         width="18.919024"
         height="105.91418"
         rx="3.2340209"
         fill="#FDA3FF"
         style="fill:url(#linearGradient42);fill-opacity:1;stroke:#ffffff;stroke-width:0.162;stroke-dasharray:none;stroke-opacity:0.4"
         id="rect1" /><rect
         x="73.496666"
         y="96.672997"
         width="18.919024"
         height="105.91418"
         rx="3.2340209"
         fill="#FDA3FF"
         style="mix-blend-mode:normal;fill:none;fill-opacity:1;stroke:#ffffff;stroke-width:1.76389;stroke-dasharray:none;stroke-opacity:0.4;filter:url(#filter47)"
         id="rect47"
         clip-path="url(#clipPath51)" /><g
         style="fill:none;fill-opacity:1;stroke-width:0;stroke-dasharray:none"
         id="g56"
         transform="matrix(0.16170105,0,0,0.16170105,16.301477,66.715958)"><path
           d="M 534.77,572.661 C 528.391,559.384 538.067,544 552.798,544 h 136.69 c 6.685,0 12.928,3.34 16.637,8.9 l 170.127,255 c 8.867,13.291 -0.661,31.1 -16.638,31.1 h -184.3 c -7.689,0 -14.697,-4.408 -18.027,-11.339 z"
           fill="#FFFB87"
           style="fill:none;fill-opacity:1;stroke-width:0;stroke-dasharray:none"
           id="path56" /></g><g
         style="opacity:1;fill:url(#linearGradient44);fill-opacity:1"
         id="g7"
         transform="matrix(0.16170105,0,0,0.16170105,16.301477,66.715958)"><path
           d="M 534.77,572.661 C 528.391,559.384 538.067,544 552.798,544 h 136.69 c 6.685,0 12.928,3.34 16.637,8.9 l 170.127,255 c 8.867,13.291 -0.661,31.1 -16.638,31.1 h -184.3 c -7.689,0 -14.697,-4.408 -18.027,-11.339 z"
           fill="#FFFB87"
           style="fill:url(#linearGradient116);fill-opacity:1"
           id="path1" /></g><g
         style="mix-blend-mode:normal;fill:none;fill-opacity:1;stroke:#ffffff;stroke-width:10.9083;stroke-dasharray:none;stroke-opacity:0.4;filter:url(#filter57)"
         id="g57"
         transform="matrix(0.16170105,0,0,0.16170105,16.830644,67.245125)"
         clip-path="url(#clipPath58)"><path
           d="M 534.77,572.661 C 528.391,559.384 538.067,544 552.798,544 h 136.69 c 6.685,0 12.928,3.34 16.637,8.9 l 170.127,255 c 8.867,13.291 -0.661,31.1 -16.638,31.1 h -184.3 c -7.689,0 -14.697,-4.408 -18.027,-11.339 z"
           fill="#FFFB87"
           style="fill:none;fill-opacity:1;stroke:#ffffff;stroke-width:10.9083;stroke-dasharray:none;stroke-opacity:0.4"
           id="path57" /></g></g></g></svg>
